<svg width="768" height="234" viewBox="0 0 768 234" fill="none" xmlns="http://www.w3.org/2000/svg">
<rect x="396.5" y="34.5" width="343" height="165" rx="7.5" stroke="#E2E5F1"/>
<path d="M434.055 59C441.744 59 448 64.5195 448 71.3047C448 74.171 446.866 76.9483 444.801 79.1497C444.393 80.8344 444.889 82.6192 446.119 83.8497C446.634 84.3642 446.27 85.25 445.539 85.25C443.201 85.25 440.948 84.3344 439.274 82.7194C437.617 83.3106 435.864 83.6094 434.055 83.6094C426.365 83.6094 420 78.0899 420 71.3047C420 64.5195 426.365 59 434.055 59ZM440.508 73.7656C441.865 73.7656 442.969 72.6617 442.969 71.3047C442.969 69.9477 441.865 68.8438 440.508 68.8438C439.151 68.8438 438.047 69.9477 438.047 71.3047C438.047 72.6617 439.151 73.7656 440.508 73.7656ZM433.945 73.7656C435.302 73.7656 436.406 72.6617 436.406 71.3047C436.406 69.9477 435.302 68.8438 433.945 68.8438C432.588 68.8438 431.484 69.9477 431.484 71.3047C431.484 72.6617 432.588 73.7656 433.945 73.7656ZM427.383 73.7656C428.74 73.7656 429.844 72.6617 429.844 71.3047C429.844 69.9477 428.74 68.8438 427.383 68.8438C426.026 68.8438 424.922 69.9477 424.922 71.3047C424.922 72.6617 426.026 73.7656 427.383 73.7656Z" fill="#22C55E"/>
<path d="M420.98 118V107.92H424.039C424.146 107.92 424.328 107.922 424.585 107.927C424.846 107.932 425.096 107.95 425.334 107.983C426.099 108.09 426.739 108.375 427.252 108.837C427.765 109.299 428.15 109.887 428.407 110.601C428.664 111.315 428.792 112.101 428.792 112.96C428.792 113.819 428.664 114.605 428.407 115.319C428.15 116.033 427.765 116.621 427.252 117.083C426.739 117.545 426.099 117.83 425.334 117.937C425.101 117.965 424.851 117.984 424.585 117.993C424.319 117.998 424.137 118 424.039 118H420.98ZM422.044 117.013H424.039C424.23 117.013 424.436 117.008 424.655 116.999C424.879 116.985 425.07 116.962 425.229 116.929C425.817 116.826 426.291 116.588 426.65 116.215C427.014 115.842 427.28 115.375 427.448 114.815C427.616 114.25 427.7 113.632 427.7 112.96C427.7 112.283 427.616 111.663 427.448 111.098C427.28 110.533 427.014 110.067 426.65 109.698C426.286 109.329 425.812 109.094 425.229 108.991C425.07 108.958 424.877 108.937 424.648 108.928C424.424 108.914 424.221 108.907 424.039 108.907H422.044V117.013ZM433.543 118.21C432.792 118.21 432.15 118.04 431.618 117.699C431.086 117.358 430.678 116.887 430.393 116.285C430.109 115.683 429.966 114.992 429.966 114.213C429.966 113.42 430.111 112.724 430.4 112.127C430.69 111.53 431.1 111.065 431.632 110.734C432.169 110.398 432.806 110.23 433.543 110.23C434.299 110.23 434.943 110.4 435.475 110.741C436.012 111.077 436.42 111.546 436.7 112.148C436.985 112.745 437.127 113.434 437.127 114.213C437.127 115.006 436.985 115.704 436.7 116.306C436.416 116.903 436.005 117.37 435.468 117.706C434.932 118.042 434.29 118.21 433.543 118.21ZM433.543 117.223C434.383 117.223 435.009 116.945 435.419 116.39C435.83 115.83 436.035 115.104 436.035 114.213C436.035 113.298 435.828 112.57 435.412 112.029C435.002 111.488 434.379 111.217 433.543 111.217C432.979 111.217 432.512 111.345 432.143 111.602C431.779 111.854 431.506 112.206 431.324 112.659C431.147 113.107 431.058 113.625 431.058 114.213C431.058 115.123 431.268 115.853 431.688 116.404C432.108 116.95 432.727 117.223 433.543 117.223ZM444.131 118V114.143C444.131 113.723 444.092 113.338 444.012 112.988C443.933 112.633 443.805 112.325 443.627 112.064C443.455 111.798 443.228 111.593 442.948 111.448C442.673 111.303 442.337 111.231 441.94 111.231C441.576 111.231 441.254 111.294 440.974 111.42C440.699 111.546 440.466 111.728 440.274 111.966C440.088 112.199 439.945 112.484 439.847 112.82C439.749 113.156 439.7 113.539 439.7 113.968L438.972 113.807C438.972 113.032 439.108 112.381 439.378 111.854C439.649 111.327 440.022 110.928 440.498 110.657C440.974 110.386 441.52 110.251 442.136 110.251C442.589 110.251 442.983 110.321 443.319 110.461C443.66 110.601 443.947 110.79 444.18 111.028C444.418 111.266 444.61 111.539 444.754 111.847C444.899 112.15 445.004 112.475 445.069 112.82C445.135 113.161 445.167 113.501 445.167 113.842V118H444.131ZM438.664 118V110.44H439.595V112.302H439.7V118H438.664ZM446.423 110.86L446.486 110.349C446.673 110.363 446.808 110.326 446.892 110.237C446.976 110.148 447.028 110.029 447.046 109.88C447.065 109.731 447.07 109.57 447.06 109.397H446.423V107.92H447.62V109.677C447.62 110.106 447.511 110.428 447.291 110.643C447.077 110.858 446.787 110.93 446.423 110.86ZM453.643 118C453.218 118.089 452.798 118.124 452.383 118.105C451.972 118.086 451.604 117.998 451.277 117.839C450.955 117.68 450.71 117.433 450.542 117.097C450.407 116.817 450.332 116.535 450.318 116.25C450.309 115.961 450.304 115.632 450.304 115.263V108.34H451.326V115.221C451.326 115.538 451.328 115.804 451.333 116.019C451.342 116.229 451.391 116.416 451.48 116.579C451.648 116.892 451.914 117.078 452.278 117.139C452.647 117.2 453.102 117.186 453.643 117.097V118ZM448.687 111.322V110.44H453.643V111.322H448.687ZM458.075 118V107.71H459.104V118H458.075ZM461.343 109.005V107.85H462.372V109.005H461.343ZM461.343 118V110.44H462.372V118H461.343ZM464.463 118L464.47 107.92H465.506V114.08L468.88 110.44H470.252L466.71 114.22L470.714 118H469.216L465.506 114.36V118H464.463ZM474.478 118.21C473.74 118.21 473.101 118.047 472.56 117.72C472.023 117.393 471.605 116.934 471.307 116.341C471.008 115.748 470.859 115.053 470.859 114.255C470.859 113.429 471.006 112.715 471.3 112.113C471.594 111.511 472.007 111.047 472.539 110.72C473.075 110.393 473.708 110.23 474.436 110.23C475.182 110.23 475.819 110.403 476.347 110.748C476.874 111.089 477.273 111.579 477.544 112.218C477.814 112.857 477.938 113.62 477.915 114.507H476.865V114.143C476.846 113.163 476.634 112.423 476.228 111.924C475.826 111.425 475.238 111.175 474.464 111.175C473.652 111.175 473.029 111.439 472.595 111.966C472.165 112.493 471.951 113.245 471.951 114.22C471.951 115.172 472.165 115.912 472.595 116.439C473.029 116.962 473.642 117.223 474.436 117.223C474.977 117.223 475.448 117.099 475.85 116.852C476.256 116.6 476.575 116.238 476.809 115.767L477.768 116.138C477.469 116.796 477.028 117.307 476.445 117.671C475.866 118.03 475.21 118.21 474.478 118.21ZM471.587 114.507V113.646H477.362V114.507H471.587ZM485.666 118.21C484.971 118.21 484.383 118.035 483.902 117.685C483.421 117.33 483.057 116.852 482.81 116.25C482.563 115.643 482.439 114.964 482.439 114.213C482.439 113.448 482.563 112.766 482.81 112.169C483.062 111.567 483.431 111.093 483.916 110.748C484.401 110.403 484.999 110.23 485.708 110.23C486.399 110.23 486.991 110.405 487.486 110.755C487.981 111.105 488.359 111.581 488.62 112.183C488.886 112.785 489.019 113.462 489.019 114.213C489.019 114.969 488.886 115.648 488.62 116.25C488.354 116.852 487.971 117.33 487.472 117.685C486.973 118.035 486.371 118.21 485.666 118.21ZM482.264 121.36V110.44H483.188V116.131H483.3V121.36H482.264ZM485.561 117.251C486.088 117.251 486.527 117.118 486.877 116.852C487.227 116.586 487.488 116.224 487.661 115.767C487.838 115.305 487.927 114.787 487.927 114.213C487.927 113.644 487.841 113.13 487.668 112.673C487.495 112.216 487.232 111.854 486.877 111.588C486.527 111.322 486.081 111.189 485.54 111.189C485.013 111.189 484.574 111.317 484.224 111.574C483.879 111.831 483.62 112.188 483.447 112.645C483.274 113.098 483.188 113.62 483.188 114.213C483.188 114.796 483.274 115.319 483.447 115.781C483.62 116.238 483.881 116.598 484.231 116.859C484.581 117.12 485.024 117.251 485.561 117.251ZM496.016 118V114.143C496.016 113.723 495.977 113.338 495.897 112.988C495.818 112.633 495.69 112.325 495.512 112.064C495.34 111.798 495.113 111.593 494.833 111.448C494.558 111.303 494.222 111.231 493.825 111.231C493.461 111.231 493.139 111.294 492.859 111.42C492.584 111.546 492.351 111.728 492.159 111.966C491.973 112.199 491.83 112.484 491.732 112.82C491.634 113.156 491.585 113.539 491.585 113.968L490.857 113.807C490.857 113.032 490.993 112.381 491.263 111.854C491.534 111.327 491.907 110.928 492.383 110.657C492.859 110.386 493.405 110.251 494.021 110.251C494.474 110.251 494.868 110.321 495.204 110.461C495.545 110.601 495.832 110.79 496.065 111.028C496.303 111.266 496.495 111.539 496.639 111.847C496.784 112.15 496.889 112.475 496.954 112.82C497.02 113.161 497.052 113.501 497.052 113.842V118H496.016ZM490.549 118V107.92H491.48V113.611H491.585V118H490.549ZM502.026 118.21C501.274 118.21 500.633 118.04 500.101 117.699C499.569 117.358 499.16 116.887 498.876 116.285C498.591 115.683 498.449 114.992 498.449 114.213C498.449 113.42 498.593 112.724 498.883 112.127C499.172 111.53 499.583 111.065 500.115 110.734C500.651 110.398 501.288 110.23 502.026 110.23C502.782 110.23 503.426 110.4 503.958 110.741C504.494 111.077 504.903 111.546 505.183 112.148C505.467 112.745 505.61 113.434 505.61 114.213C505.61 115.006 505.467 115.704 505.183 116.306C504.898 116.903 504.487 117.37 503.951 117.706C503.414 118.042 502.772 118.21 502.026 118.21ZM502.026 117.223C502.866 117.223 503.491 116.945 503.902 116.39C504.312 115.83 504.518 115.104 504.518 114.213C504.518 113.298 504.31 112.57 503.895 112.029C503.484 111.488 502.861 111.217 502.026 111.217C501.461 111.217 500.994 111.345 500.626 111.602C500.262 111.854 499.989 112.206 499.807 112.659C499.629 113.107 499.541 113.625 499.541 114.213C499.541 115.123 499.751 115.853 500.171 116.404C500.591 116.95 501.209 117.223 502.026 117.223ZM512.614 118V114.143C512.614 113.723 512.574 113.338 512.495 112.988C512.415 112.633 512.287 112.325 512.11 112.064C511.937 111.798 511.711 111.593 511.431 111.448C511.155 111.303 510.819 111.231 510.423 111.231C510.059 111.231 509.737 111.294 509.457 111.42C509.181 111.546 508.948 111.728 508.757 111.966C508.57 112.199 508.428 112.484 508.33 112.82C508.232 113.156 508.183 113.539 508.183 113.968L507.455 113.807C507.455 113.032 507.59 112.381 507.861 111.854C508.131 111.327 508.505 110.928 508.981 110.657C509.457 110.386 510.003 110.251 510.619 110.251C511.071 110.251 511.466 110.321 511.802 110.461C512.142 110.601 512.429 110.79 512.663 111.028C512.901 111.266 513.092 111.539 513.237 111.847C513.381 112.15 513.486 112.475 513.552 112.82C513.617 113.161 513.65 113.501 513.65 113.842V118H512.614ZM507.147 118V110.44H508.078V112.302H508.183V118H507.147ZM518.624 118.21C517.887 118.21 517.248 118.047 516.706 117.72C516.17 117.393 515.752 116.934 515.453 116.341C515.155 115.748 515.005 115.053 515.005 114.255C515.005 113.429 515.152 112.715 515.446 112.113C515.74 111.511 516.153 111.047 516.685 110.72C517.222 110.393 517.854 110.23 518.582 110.23C519.329 110.23 519.966 110.403 520.493 110.748C521.021 111.089 521.42 111.579 521.69 112.218C521.961 112.857 522.085 113.62 522.061 114.507H521.011V114.143C520.993 113.163 520.78 112.423 520.374 111.924C519.973 111.425 519.385 111.175 518.61 111.175C517.798 111.175 517.175 111.439 516.741 111.966C516.312 112.493 516.097 113.245 516.097 114.22C516.097 115.172 516.312 115.912 516.741 116.439C517.175 116.962 517.789 117.223 518.582 117.223C519.124 117.223 519.595 117.099 519.996 116.852C520.402 116.6 520.722 116.238 520.955 115.767L521.914 116.138C521.616 116.796 521.175 117.307 520.591 117.671C520.013 118.03 519.357 118.21 518.624 118.21ZM515.733 114.507V113.646H521.508V114.507H515.733ZM529.553 118.21C528.793 118.21 528.149 118.04 527.622 117.699C527.094 117.358 526.693 116.889 526.418 116.292C526.147 115.69 526.007 114.999 525.998 114.22C526.007 113.427 526.152 112.731 526.432 112.134C526.712 111.532 527.115 111.065 527.643 110.734C528.17 110.398 528.809 110.23 529.561 110.23C530.326 110.23 530.991 110.417 531.556 110.79C532.125 111.163 532.515 111.674 532.725 112.323L531.717 112.645C531.539 112.192 531.257 111.842 530.87 111.595C530.487 111.343 530.048 111.217 529.553 111.217C528.998 111.217 528.539 111.345 528.175 111.602C527.811 111.854 527.54 112.206 527.363 112.659C527.185 113.112 527.094 113.632 527.09 114.22C527.099 115.125 527.309 115.853 527.72 116.404C528.13 116.95 528.742 117.223 529.553 117.223C530.067 117.223 530.503 117.106 530.863 116.873C531.227 116.635 531.502 116.29 531.689 115.837L532.725 116.145C532.445 116.817 532.034 117.33 531.493 117.685C530.951 118.035 530.305 118.21 529.553 118.21ZM536.291 118.21C535.722 118.21 535.244 118.107 534.856 117.902C534.474 117.697 534.187 117.424 533.995 117.083C533.804 116.742 533.708 116.371 533.708 115.97C533.708 115.559 533.79 115.209 533.953 114.92C534.121 114.626 534.348 114.386 534.632 114.199C534.922 114.012 535.255 113.87 535.633 113.772C536.016 113.679 536.438 113.597 536.9 113.527C537.367 113.452 537.822 113.389 538.265 113.338C538.713 113.282 539.105 113.228 539.441 113.177L539.077 113.401C539.091 112.654 538.947 112.101 538.643 111.742C538.34 111.383 537.813 111.203 537.061 111.203C536.543 111.203 536.105 111.32 535.745 111.553C535.391 111.786 535.141 112.155 534.996 112.659L533.995 112.365C534.168 111.688 534.516 111.163 535.038 110.79C535.561 110.417 536.24 110.23 537.075 110.23C537.766 110.23 538.352 110.361 538.832 110.622C539.318 110.879 539.661 111.252 539.861 111.742C539.955 111.961 540.015 112.206 540.043 112.477C540.071 112.748 540.085 113.023 540.085 113.303V118H539.168V116.103L539.434 116.215C539.178 116.864 538.779 117.358 538.237 117.699C537.696 118.04 537.047 118.21 536.291 118.21ZM536.41 117.321C536.891 117.321 537.311 117.235 537.67 117.062C538.03 116.889 538.319 116.654 538.538 116.355C538.758 116.052 538.9 115.711 538.965 115.333C539.021 115.09 539.052 114.824 539.056 114.535C539.061 114.241 539.063 114.022 539.063 113.877L539.455 114.08C539.105 114.127 538.725 114.173 538.314 114.22C537.908 114.267 537.507 114.32 537.11 114.381C536.718 114.442 536.364 114.514 536.046 114.598C535.832 114.659 535.624 114.745 535.423 114.857C535.223 114.964 535.057 115.109 534.926 115.291C534.8 115.473 534.737 115.699 534.737 115.97C534.737 116.189 534.791 116.402 534.898 116.607C535.01 116.812 535.188 116.983 535.43 117.118C535.678 117.253 536.004 117.321 536.41 117.321ZM542.048 118V107.71H543.077V118H542.048ZM545.315 118V107.71H546.344V118H545.315ZM551.264 118.203C550.377 118.203 549.647 118.012 549.073 117.629C548.504 117.246 548.154 116.714 548.023 116.033L549.073 115.858C549.185 116.287 549.439 116.63 549.836 116.887C550.237 117.139 550.732 117.265 551.32 117.265C551.894 117.265 552.347 117.146 552.678 116.908C553.009 116.665 553.175 116.336 553.175 115.921C553.175 115.688 553.121 115.499 553.014 115.354C552.911 115.205 552.699 115.067 552.377 114.941C552.055 114.815 551.574 114.666 550.935 114.493C550.249 114.306 549.712 114.12 549.325 113.933C548.938 113.746 548.662 113.532 548.499 113.289C548.336 113.042 548.254 112.741 548.254 112.386C548.254 111.957 548.375 111.581 548.618 111.259C548.861 110.932 549.197 110.68 549.626 110.503C550.055 110.321 550.555 110.23 551.124 110.23C551.693 110.23 552.202 110.323 552.65 110.51C553.103 110.692 553.467 110.949 553.742 111.28C554.017 111.611 554.181 111.996 554.232 112.435L553.182 112.624C553.112 112.181 552.89 111.831 552.517 111.574C552.148 111.313 551.679 111.177 551.11 111.168C550.573 111.154 550.137 111.257 549.801 111.476C549.465 111.691 549.297 111.978 549.297 112.337C549.297 112.538 549.358 112.71 549.479 112.855C549.6 112.995 549.82 113.128 550.137 113.254C550.459 113.38 550.916 113.518 551.509 113.667C552.204 113.844 552.75 114.031 553.147 114.227C553.544 114.423 553.826 114.654 553.994 114.92C554.162 115.186 554.246 115.515 554.246 115.907C554.246 116.621 553.98 117.183 553.448 117.594C552.921 118 552.193 118.203 551.264 118.203ZM557.772 115.249C557.772 114.885 557.789 114.565 557.821 114.29C557.859 114.01 557.952 113.73 558.101 113.45C558.241 113.184 558.414 112.965 558.619 112.792C558.825 112.615 559.039 112.449 559.263 112.295C559.487 112.136 559.7 111.95 559.9 111.735C560.082 111.525 560.204 111.313 560.264 111.098C560.325 110.883 560.355 110.657 560.355 110.419C560.355 110.181 560.325 109.969 560.264 109.782C560.208 109.595 560.12 109.434 559.998 109.299C559.812 109.07 559.583 108.914 559.312 108.83C559.042 108.746 558.759 108.704 558.465 108.704C558.176 108.704 557.905 108.746 557.653 108.83C557.406 108.909 557.201 109.033 557.037 109.201C556.879 109.35 556.762 109.53 556.687 109.74C556.617 109.95 556.582 110.172 556.582 110.405H555.518C555.537 110.036 555.616 109.677 555.756 109.327C555.901 108.972 556.111 108.676 556.386 108.438C556.662 108.186 556.981 108.004 557.345 107.892C557.714 107.775 558.085 107.717 558.458 107.717C558.916 107.717 559.35 107.787 559.76 107.927C560.171 108.062 560.516 108.291 560.796 108.613C561.02 108.851 561.184 109.124 561.286 109.432C561.394 109.735 561.447 110.06 561.447 110.405C561.447 110.792 561.375 111.156 561.23 111.497C561.086 111.838 560.883 112.141 560.621 112.407C560.463 112.58 560.283 112.741 560.082 112.89C559.882 113.035 559.688 113.186 559.501 113.345C559.319 113.499 559.179 113.667 559.081 113.849C558.96 114.073 558.892 114.285 558.878 114.486C558.869 114.687 558.864 114.941 558.864 115.249H557.772ZM557.779 118V116.628H558.864V118H557.779Z" fill="#565973"/>
<path d="M425.657 159.21C424.649 159.21 423.79 158.991 423.081 158.552C422.371 158.109 421.828 157.493 421.45 156.704C421.076 155.915 420.89 155.001 420.89 153.96C420.89 152.919 421.076 152.005 421.45 151.216C421.828 150.427 422.371 149.814 423.081 149.375C423.79 148.932 424.649 148.71 425.657 148.71C426.819 148.71 427.78 149.004 428.541 149.592C429.306 150.18 429.838 150.971 430.137 151.965L428.653 152.364C428.457 151.659 428.107 151.106 427.603 150.705C427.103 150.304 426.455 150.103 425.657 150.103C424.943 150.103 424.348 150.264 423.872 150.586C423.396 150.908 423.036 151.358 422.794 151.937C422.556 152.516 422.437 153.19 422.437 153.96C422.432 154.73 422.549 155.404 422.787 155.983C423.029 156.562 423.389 157.012 423.865 157.334C424.345 157.656 424.943 157.817 425.657 157.817C426.455 157.817 427.103 157.616 427.603 157.215C428.107 156.809 428.457 156.256 428.653 155.556L430.137 155.955C429.838 156.949 429.306 157.74 428.541 158.328C427.78 158.916 426.819 159.21 425.657 159.21ZM434.959 159.21C434.203 159.21 433.548 159.04 432.992 158.699C432.437 158.358 432.008 157.889 431.704 157.292C431.406 156.69 431.256 155.997 431.256 155.213C431.256 154.424 431.41 153.731 431.718 153.134C432.026 152.532 432.458 152.065 433.013 151.734C433.569 151.398 434.217 151.23 434.959 151.23C435.715 151.23 436.371 151.4 436.926 151.741C437.482 152.082 437.911 152.551 438.214 153.148C438.518 153.745 438.669 154.434 438.669 155.213C438.669 156.002 438.515 156.697 438.207 157.299C437.904 157.896 437.475 158.365 436.919 158.706C436.364 159.042 435.711 159.21 434.959 159.21ZM434.959 157.831C435.683 157.831 436.222 157.588 436.576 157.103C436.936 156.613 437.115 155.983 437.115 155.213C437.115 154.424 436.933 153.794 436.569 153.323C436.21 152.847 435.673 152.609 434.959 152.609C434.469 152.609 434.066 152.721 433.748 152.945C433.431 153.164 433.195 153.47 433.041 153.862C432.887 154.249 432.81 154.7 432.81 155.213C432.81 156.006 432.992 156.641 433.356 157.117C433.72 157.593 434.255 157.831 434.959 157.831ZM445.514 159V155.283C445.514 154.989 445.488 154.688 445.437 154.38C445.39 154.067 445.297 153.778 445.157 153.512C445.021 153.246 444.828 153.031 444.576 152.868C444.328 152.705 444.004 152.623 443.603 152.623C443.341 152.623 443.094 152.667 442.861 152.756C442.627 152.84 442.422 152.978 442.245 153.169C442.072 153.36 441.934 153.612 441.832 153.925C441.734 154.238 441.685 154.618 441.685 155.066L440.775 154.723C440.775 154.037 440.903 153.433 441.16 152.91C441.416 152.383 441.785 151.972 442.266 151.678C442.746 151.384 443.327 151.237 444.009 151.237C444.531 151.237 444.97 151.321 445.325 151.489C445.679 151.657 445.966 151.879 446.186 152.154C446.41 152.425 446.58 152.721 446.697 153.043C446.813 153.365 446.893 153.68 446.935 153.988C446.977 154.296 446.998 154.567 446.998 154.8V159H445.514ZM440.201 159V151.44H441.51V153.624H441.685V159H440.201ZM453.147 159C452.671 159.093 452.204 159.133 451.747 159.119C451.289 159.105 450.881 159.016 450.522 158.853C450.162 158.69 449.892 158.433 449.71 158.083C449.546 157.77 449.458 157.453 449.444 157.131C449.434 156.804 449.43 156.436 449.43 156.025V149.34H450.9V155.955C450.9 156.258 450.902 156.522 450.907 156.746C450.916 156.97 450.965 157.159 451.054 157.313C451.222 157.602 451.488 157.768 451.852 157.81C452.22 157.847 452.652 157.831 453.147 157.761V159ZM447.981 152.616V151.44H453.147V152.616H447.981ZM456.876 159.21C456.316 159.21 455.847 159.107 455.469 158.902C455.091 158.692 454.804 158.417 454.608 158.076C454.416 157.731 454.321 157.353 454.321 156.942C454.321 156.559 454.388 156.223 454.524 155.934C454.659 155.645 454.86 155.4 455.126 155.199C455.392 154.994 455.718 154.828 456.106 154.702C456.442 154.604 456.822 154.518 457.247 154.443C457.671 154.368 458.117 154.298 458.584 154.233C459.055 154.168 459.522 154.102 459.984 154.037L459.452 154.331C459.461 153.738 459.335 153.3 459.074 153.015C458.817 152.726 458.374 152.581 457.744 152.581C457.347 152.581 456.983 152.674 456.652 152.861C456.32 153.043 456.089 153.346 455.959 153.771L454.594 153.351C454.78 152.702 455.135 152.187 455.658 151.804C456.185 151.421 456.885 151.23 457.758 151.23C458.434 151.23 459.022 151.347 459.522 151.58C460.026 151.809 460.394 152.173 460.628 152.672C460.749 152.919 460.824 153.181 460.852 153.456C460.88 153.731 460.894 154.028 460.894 154.345V159H459.599V157.271L459.851 157.495C459.538 158.074 459.139 158.505 458.654 158.79C458.173 159.07 457.58 159.21 456.876 159.21ZM457.135 158.013C457.55 158.013 457.907 157.941 458.206 157.796C458.504 157.647 458.745 157.458 458.927 157.229C459.109 157 459.228 156.762 459.284 156.515C459.363 156.291 459.407 156.039 459.417 155.759C459.431 155.479 459.438 155.255 459.438 155.087L459.914 155.262C459.452 155.332 459.032 155.395 458.654 155.451C458.276 155.507 457.933 155.563 457.625 155.619C457.321 155.67 457.051 155.733 456.813 155.808C456.612 155.878 456.432 155.962 456.274 156.06C456.12 156.158 455.996 156.277 455.903 156.417C455.814 156.557 455.77 156.727 455.77 156.928C455.77 157.124 455.819 157.306 455.917 157.474C456.015 157.637 456.164 157.768 456.365 157.866C456.565 157.964 456.822 158.013 457.135 158.013ZM465.945 159.21C465.171 159.21 464.513 159.037 463.971 158.692C463.43 158.347 463.015 157.873 462.725 157.271C462.441 156.669 462.296 155.985 462.291 155.22C462.296 154.441 462.445 153.752 462.739 153.155C463.033 152.553 463.453 152.082 463.999 151.741C464.545 151.4 465.201 151.23 465.966 151.23C466.792 151.23 467.497 151.435 468.08 151.846C468.668 152.257 469.056 152.819 469.242 153.533L467.786 153.953C467.642 153.528 467.404 153.199 467.072 152.966C466.746 152.728 466.37 152.609 465.945 152.609C465.465 152.609 465.07 152.723 464.762 152.952C464.454 153.176 464.226 153.484 464.076 153.876C463.927 154.268 463.85 154.716 463.845 155.22C463.85 155.999 464.027 156.629 464.377 157.11C464.732 157.591 465.255 157.831 465.945 157.831C466.417 157.831 466.797 157.724 467.086 157.509C467.38 157.29 467.604 156.977 467.758 156.571L469.242 156.921C468.995 157.658 468.587 158.225 468.017 158.622C467.448 159.014 466.757 159.21 465.945 159.21ZM474.994 159C474.518 159.093 474.052 159.133 473.594 159.119C473.137 159.105 472.729 159.016 472.369 158.853C472.01 158.69 471.739 158.433 471.557 158.083C471.394 157.77 471.305 157.453 471.291 157.131C471.282 156.804 471.277 156.436 471.277 156.025V149.34H472.747V155.955C472.747 156.258 472.75 156.522 472.754 156.746C472.764 156.97 472.813 157.159 472.901 157.313C473.069 157.602 473.335 157.768 473.699 157.81C474.068 157.847 474.5 157.831 474.994 157.761V159ZM469.828 152.616V151.44H474.994V152.616H469.828ZM482.24 159.203C481.717 159.203 481.279 159.119 480.924 158.951C480.569 158.783 480.28 158.564 480.056 158.293C479.837 158.018 479.669 157.719 479.552 157.397C479.435 157.075 479.356 156.76 479.314 156.452C479.272 156.144 479.251 155.873 479.251 155.64V151.44H480.735V155.157C480.735 155.451 480.758 155.754 480.805 156.067C480.856 156.375 480.95 156.662 481.085 156.928C481.225 157.194 481.419 157.409 481.666 157.572C481.918 157.735 482.245 157.817 482.646 157.817C482.907 157.817 483.155 157.775 483.388 157.691C483.621 157.602 483.824 157.462 483.997 157.271C484.174 157.08 484.312 156.828 484.41 156.515C484.513 156.202 484.564 155.822 484.564 155.374L485.474 155.717C485.474 156.403 485.346 157.01 485.089 157.537C484.832 158.06 484.464 158.468 483.983 158.762C483.502 159.056 482.921 159.203 482.24 159.203ZM484.739 159V156.816H484.564V151.44H486.041V159H484.739ZM490.895 159.203C489.976 159.203 489.227 159 488.648 158.594C488.07 158.188 487.715 157.616 487.584 156.879L489.082 156.648C489.176 157.04 489.39 157.35 489.726 157.579C490.067 157.803 490.489 157.915 490.993 157.915C491.451 157.915 491.808 157.822 492.064 157.635C492.326 157.448 492.456 157.192 492.456 156.865C492.456 156.674 492.41 156.52 492.316 156.403C492.228 156.282 492.039 156.167 491.749 156.06C491.46 155.953 491.019 155.82 490.426 155.661C489.778 155.493 489.262 155.313 488.879 155.122C488.501 154.926 488.231 154.7 488.067 154.443C487.909 154.182 487.829 153.867 487.829 153.498C487.829 153.041 487.951 152.642 488.193 152.301C488.436 151.96 488.777 151.697 489.215 151.51C489.659 151.323 490.177 151.23 490.769 151.23C491.348 151.23 491.864 151.321 492.316 151.503C492.769 151.685 493.135 151.944 493.415 152.28C493.695 152.611 493.863 153.001 493.919 153.449L492.421 153.722C492.37 153.358 492.2 153.071 491.91 152.861C491.621 152.651 491.245 152.537 490.783 152.518C490.34 152.499 489.981 152.574 489.705 152.742C489.43 152.905 489.292 153.132 489.292 153.421C489.292 153.589 489.344 153.731 489.446 153.848C489.554 153.965 489.759 154.077 490.062 154.184C490.366 154.291 490.814 154.42 491.406 154.569C492.041 154.732 492.545 154.914 492.918 155.115C493.292 155.311 493.558 155.547 493.716 155.822C493.88 156.093 493.961 156.422 493.961 156.809C493.961 157.556 493.688 158.141 493.142 158.566C492.601 158.991 491.852 159.203 490.895 159.203Z" fill="#22C55E"/>
<path d="M512.411 158.411L513.589 159.589L519.178 154L513.589 148.411L512.411 149.589L515.988 153.167H508V154.833H515.988L512.411 158.411Z" fill="#22C55E"/>
<rect x="29.5" y="34.5" width="342" height="165" rx="7.5" stroke="#E2E5F1"/>
<g clip-path="url(#clip0_20005129_590)">
<path d="M74.2871 76.5226C73.3724 75.6194 72.2304 75.6194 71.3214 76.5226C70.6281 77.2101 69.9347 77.8976 69.253 78.5968C69.0666 78.7891 68.9092 78.8299 68.682 78.7017C68.2334 78.457 67.7556 78.2589 67.3244 77.9908C65.3143 76.7265 63.6304 75.1009 62.1388 73.2714C61.3988 72.3624 60.7404 71.3894 60.2802 70.294C60.1869 70.0726 60.2044 69.9269 60.385 69.7463C61.0784 69.0763 61.7543 68.3887 62.436 67.7012C63.3857 66.7456 63.3857 65.6269 62.4301 64.6656C61.8883 64.1179 61.3464 63.5818 60.8045 63.0341C60.2452 62.4748 59.6917 61.9096 59.1265 61.3561C58.2117 60.4646 57.0697 60.4646 56.1608 61.3619C55.4616 62.0495 54.7916 62.7545 54.0807 63.4303C53.4223 64.0538 53.0902 64.8171 53.0203 65.7085C52.9096 67.1593 53.265 68.5286 53.7661 69.8628C54.7916 72.6246 56.3531 75.0776 58.2467 77.3266C60.8045 80.3681 63.8576 82.7744 67.4293 84.5107C69.0374 85.2915 70.7038 85.8916 72.5159 85.9907C73.7627 86.0606 74.8465 85.746 75.7146 84.7729C76.3089 84.1087 76.979 83.5027 77.6083 82.8676C78.5405 81.9237 78.5463 80.7818 77.6199 79.8495C76.5129 78.7366 75.4 77.6296 74.2871 76.5226Z" fill="#6366F1"/>
<path d="M73.1744 71.8788L75.3243 71.5118C74.9864 69.5366 74.0542 67.7478 72.6383 66.3261C71.1409 64.8287 69.2473 63.8848 67.1614 63.5935L66.8584 65.7551C68.4723 65.9824 69.9406 66.7107 71.1001 67.8702C72.1955 68.9656 72.9122 70.3523 73.1744 71.8788Z" fill="#6366F1"/>
<path d="M76.5359 62.533C74.0538 60.0509 70.9133 58.4836 67.4465 58L67.1436 60.1616C70.1384 60.5812 72.8536 61.9387 74.9977 64.0771C77.0312 66.1105 78.3655 68.68 78.8491 71.5059L80.999 71.1388C80.4339 67.8643 78.8898 64.8928 76.5359 62.533Z" fill="#6366F1"/>
</g>
<path d="M57.48 118.21C56.7753 118.21 56.1407 118.093 55.576 117.86C55.016 117.622 54.5517 117.286 54.183 116.852C53.819 116.418 53.581 115.902 53.469 115.305L54.519 115.13C54.687 115.783 55.0417 116.297 55.583 116.67C56.1243 117.039 56.7707 117.223 57.522 117.223C58.0167 117.223 58.46 117.146 58.852 116.992C59.244 116.833 59.552 116.609 59.776 116.32C60 116.031 60.112 115.688 60.112 115.291C60.112 115.03 60.0653 114.808 59.972 114.626C59.8787 114.439 59.755 114.285 59.601 114.164C59.447 114.043 59.279 113.942 59.097 113.863C58.915 113.779 58.7377 113.711 58.565 113.66L56.01 112.897C55.702 112.808 55.4173 112.696 55.156 112.561C54.8947 112.421 54.666 112.255 54.47 112.064C54.2787 111.868 54.1293 111.639 54.022 111.378C53.9147 111.117 53.861 110.818 53.861 110.482C53.861 109.913 54.0103 109.42 54.309 109.005C54.6077 108.59 55.016 108.27 55.534 108.046C56.052 107.822 56.6423 107.712 57.305 107.717C57.977 107.717 58.5767 107.836 59.104 108.074C59.636 108.312 60.0747 108.653 60.42 109.096C60.7653 109.535 60.994 110.055 61.106 110.657L60.028 110.853C59.958 110.414 59.797 110.034 59.545 109.712C59.293 109.39 58.971 109.143 58.579 108.97C58.1917 108.793 57.7647 108.702 57.298 108.697C56.8453 108.697 56.4417 108.774 56.087 108.928C55.737 109.077 55.4593 109.283 55.254 109.544C55.0487 109.805 54.946 110.104 54.946 110.44C54.946 110.781 55.0393 111.054 55.226 111.259C55.4173 111.464 55.6507 111.625 55.926 111.742C56.206 111.859 56.4767 111.954 56.738 112.029L58.712 112.61C58.9173 112.666 59.1577 112.748 59.433 112.855C59.713 112.958 59.9837 113.107 60.245 113.303C60.511 113.494 60.7303 113.746 60.903 114.059C61.0757 114.372 61.162 114.768 61.162 115.249C61.162 115.716 61.0687 116.133 60.882 116.502C60.7 116.871 60.441 117.181 60.105 117.433C59.7737 117.685 59.384 117.876 58.936 118.007C58.4927 118.142 58.0073 118.21 57.48 118.21ZM66.723 118C66.2983 118.089 65.8783 118.124 65.463 118.105C65.0523 118.086 64.6836 117.998 64.357 117.839C64.035 117.68 63.79 117.433 63.622 117.097C63.4866 116.817 63.412 116.535 63.398 116.25C63.3886 115.961 63.384 115.632 63.384 115.263V108.34H64.406V115.221C64.406 115.538 64.4083 115.804 64.413 116.019C64.4223 116.229 64.4713 116.416 64.56 116.579C64.728 116.892 64.994 117.078 65.358 117.139C65.7266 117.2 66.1816 117.186 66.723 117.097V118ZM61.767 111.322V110.44H66.723V111.322H61.767ZM68.3524 109.005V107.85H69.3814V109.005H68.3524ZM68.3524 118V110.44H69.3814V118H68.3524ZM71.62 118V107.71H72.649V118H71.62ZM74.8876 118V107.71H75.9166V118H74.8876ZM86.2779 118V114.143C86.2779 113.723 86.2382 113.338 86.1589 112.988C86.0796 112.633 85.9512 112.325 85.7739 112.064C85.6012 111.798 85.3749 111.593 85.0949 111.448C84.8196 111.303 84.4836 111.231 84.0869 111.231C83.7229 111.231 83.4009 111.294 83.1209 111.42C82.8456 111.546 82.6122 111.728 82.4209 111.966C82.2342 112.199 82.0919 112.484 81.9939 112.82C81.8959 113.156 81.8469 113.539 81.8469 113.968L81.1189 113.807C81.1189 113.032 81.2542 112.381 81.5249 111.854C81.7956 111.327 82.1689 110.928 82.6449 110.657C83.1209 110.386 83.6669 110.251 84.2829 110.251C84.7356 110.251 85.1299 110.321 85.4659 110.461C85.8066 110.601 86.0936 110.79 86.3269 111.028C86.5649 111.266 86.7562 111.539 86.9009 111.847C87.0456 112.15 87.1506 112.475 87.2159 112.82C87.2812 113.161 87.3139 113.501 87.3139 113.842V118H86.2779ZM80.8109 118V107.92H81.7419V113.611H81.8469V118H80.8109ZM91.2934 118.21C90.7241 118.21 90.2457 118.107 89.8584 117.902C89.4757 117.697 89.1887 117.424 88.9974 117.083C88.8061 116.742 88.7104 116.371 88.7104 115.97C88.7104 115.559 88.7921 115.209 88.9554 114.92C89.1234 114.626 89.3497 114.386 89.6344 114.199C89.9237 114.012 90.2574 113.87 90.6354 113.772C91.0181 113.679 91.4404 113.597 91.9024 113.527C92.3691 113.452 92.8241 113.389 93.2674 113.338C93.7154 113.282 94.1074 113.228 94.4434 113.177L94.0794 113.401C94.0934 112.654 93.9487 112.101 93.6454 111.742C93.3421 111.383 92.8147 111.203 92.0634 111.203C91.5454 111.203 91.1067 111.32 90.7474 111.553C90.3927 111.786 90.1431 112.155 89.9984 112.659L88.9974 112.365C89.1701 111.688 89.5177 111.163 90.0404 110.79C90.5631 110.417 91.2421 110.23 92.0774 110.23C92.7681 110.23 93.3537 110.361 93.8344 110.622C94.3197 110.879 94.6627 111.252 94.8634 111.742C94.9567 111.961 95.0174 112.206 95.0454 112.477C95.0734 112.748 95.0874 113.023 95.0874 113.303V118H94.1704V116.103L94.4364 116.215C94.1797 116.864 93.7807 117.358 93.2394 117.699C92.6981 118.04 92.0494 118.21 91.2934 118.21ZM91.4124 117.321C91.8931 117.321 92.3131 117.235 92.6724 117.062C93.0317 116.889 93.3211 116.654 93.5404 116.355C93.7597 116.052 93.9021 115.711 93.9674 115.333C94.0234 115.09 94.0537 114.824 94.0584 114.535C94.0631 114.241 94.0654 114.022 94.0654 113.877L94.4574 114.08C94.1074 114.127 93.7271 114.173 93.3164 114.22C92.9104 114.267 92.5091 114.32 92.1124 114.381C91.7204 114.442 91.3657 114.514 91.0484 114.598C90.8337 114.659 90.6261 114.745 90.4254 114.857C90.2247 114.964 90.0591 115.109 89.9284 115.291C89.8024 115.473 89.7394 115.699 89.7394 115.97C89.7394 116.189 89.7931 116.402 89.9004 116.607C90.0124 116.812 90.1897 116.983 90.4324 117.118C90.6797 117.253 91.0064 117.321 91.4124 117.321ZM98.6803 118L95.9363 110.44H96.9793L99.2123 116.656L101.431 110.44H102.488L99.7443 118H98.6803ZM106.671 118.21C105.934 118.21 105.295 118.047 104.753 117.72C104.217 117.393 103.799 116.934 103.5 116.341C103.202 115.748 103.052 115.053 103.052 114.255C103.052 113.429 103.199 112.715 103.493 112.113C103.787 111.511 104.2 111.047 104.732 110.72C105.269 110.393 105.901 110.23 106.629 110.23C107.376 110.23 108.013 110.403 108.54 110.748C109.068 111.089 109.467 111.579 109.737 112.218C110.008 112.857 110.132 113.62 110.108 114.507H109.058V114.143C109.04 113.163 108.827 112.423 108.421 111.924C108.02 111.425 107.432 111.175 106.657 111.175C105.845 111.175 105.222 111.439 104.788 111.966C104.359 112.493 104.144 113.245 104.144 114.22C104.144 115.172 104.359 115.912 104.788 116.439C105.222 116.962 105.836 117.223 106.629 117.223C107.171 117.223 107.642 117.099 108.043 116.852C108.449 116.6 108.769 116.238 109.002 115.767L109.961 116.138C109.663 116.796 109.222 117.307 108.638 117.671C108.06 118.03 107.404 118.21 106.671 118.21ZM103.78 114.507V113.646H109.555V114.507H103.78ZM120.2 118.21C119.495 118.21 118.893 118.035 118.394 117.685C117.895 117.33 117.512 116.852 117.246 116.25C116.98 115.648 116.847 114.969 116.847 114.213C116.847 113.462 116.978 112.785 117.239 112.183C117.505 111.581 117.885 111.105 118.38 110.755C118.875 110.405 119.467 110.23 120.158 110.23C120.867 110.23 121.465 110.403 121.95 110.748C122.435 111.093 122.802 111.567 123.049 112.169C123.301 112.766 123.427 113.448 123.427 114.213C123.427 114.964 123.303 115.643 123.056 116.25C122.809 116.852 122.445 117.33 121.964 117.685C121.483 118.035 120.895 118.21 120.2 118.21ZM120.305 117.251C120.842 117.251 121.285 117.12 121.635 116.859C121.985 116.598 122.246 116.238 122.419 115.781C122.592 115.319 122.678 114.796 122.678 114.213C122.678 113.62 122.592 113.098 122.419 112.645C122.246 112.188 121.985 111.831 121.635 111.574C121.29 111.317 120.853 111.189 120.326 111.189C119.785 111.189 119.337 111.322 118.982 111.588C118.627 111.854 118.364 112.216 118.191 112.673C118.023 113.13 117.939 113.644 117.939 114.213C117.939 114.787 118.025 115.305 118.198 115.767C118.375 116.224 118.639 116.586 118.989 116.852C119.339 117.118 119.778 117.251 120.305 117.251ZM122.566 121.36V116.131H122.678V110.44H123.602V121.36H122.566ZM128.457 118.189C128.004 118.189 127.608 118.119 127.267 117.979C126.931 117.839 126.644 117.65 126.406 117.412C126.173 117.174 125.984 116.903 125.839 116.6C125.694 116.292 125.589 115.968 125.524 115.627C125.459 115.282 125.426 114.939 125.426 114.598V110.44H126.462V114.297C126.462 114.712 126.502 115.097 126.581 115.452C126.66 115.807 126.786 116.117 126.959 116.383C127.136 116.644 127.363 116.847 127.638 116.992C127.918 117.137 128.256 117.209 128.653 117.209C129.017 117.209 129.337 117.146 129.612 117.02C129.892 116.894 130.125 116.714 130.312 116.481C130.503 116.243 130.648 115.956 130.746 115.62C130.844 115.279 130.893 114.897 130.893 114.472L131.621 114.633C131.621 115.408 131.486 116.059 131.215 116.586C130.944 117.113 130.571 117.512 130.095 117.783C129.619 118.054 129.073 118.189 128.457 118.189ZM130.998 118V116.138H130.893V110.44H131.922V118H130.998ZM137.077 118.21C136.34 118.21 135.701 118.047 135.159 117.72C134.623 117.393 134.205 116.934 133.906 116.341C133.608 115.748 133.458 115.053 133.458 114.255C133.458 113.429 133.605 112.715 133.899 112.113C134.193 111.511 134.606 111.047 135.138 110.72C135.675 110.393 136.307 110.23 137.035 110.23C137.782 110.23 138.419 110.403 138.946 110.748C139.474 111.089 139.873 111.579 140.143 112.218C140.414 112.857 140.538 113.62 140.514 114.507H139.464V114.143C139.446 113.163 139.233 112.423 138.827 111.924C138.426 111.425 137.838 111.175 137.063 111.175C136.251 111.175 135.628 111.439 135.194 111.966C134.765 112.493 134.55 113.245 134.55 114.22C134.55 115.172 134.765 115.912 135.194 116.439C135.628 116.962 136.242 117.223 137.035 117.223C137.577 117.223 138.048 117.099 138.449 116.852C138.855 116.6 139.175 116.238 139.408 115.767L140.367 116.138C140.069 116.796 139.628 117.307 139.044 117.671C138.466 118.03 137.81 118.21 137.077 118.21ZM134.186 114.507V113.646H139.961V114.507H134.186ZM144.889 118.203C144.002 118.203 143.272 118.012 142.698 117.629C142.129 117.246 141.779 116.714 141.648 116.033L142.698 115.858C142.81 116.287 143.064 116.63 143.461 116.887C143.862 117.139 144.357 117.265 144.945 117.265C145.519 117.265 145.972 117.146 146.303 116.908C146.634 116.665 146.8 116.336 146.8 115.921C146.8 115.688 146.746 115.499 146.639 115.354C146.536 115.205 146.324 115.067 146.002 114.941C145.68 114.815 145.199 114.666 144.56 114.493C143.874 114.306 143.337 114.12 142.95 113.933C142.563 113.746 142.287 113.532 142.124 113.289C141.961 113.042 141.879 112.741 141.879 112.386C141.879 111.957 142 111.581 142.243 111.259C142.486 110.932 142.822 110.68 143.251 110.503C143.68 110.321 144.18 110.23 144.749 110.23C145.318 110.23 145.827 110.323 146.275 110.51C146.728 110.692 147.092 110.949 147.367 111.28C147.642 111.611 147.806 111.996 147.857 112.435L146.807 112.624C146.737 112.181 146.515 111.831 146.142 111.574C145.773 111.313 145.304 111.177 144.735 111.168C144.198 111.154 143.762 111.257 143.426 111.476C143.09 111.691 142.922 111.978 142.922 112.337C142.922 112.538 142.983 112.71 143.104 112.855C143.225 112.995 143.445 113.128 143.762 113.254C144.084 113.38 144.541 113.518 145.134 113.667C145.829 113.844 146.375 114.031 146.772 114.227C147.169 114.423 147.451 114.654 147.619 114.92C147.787 115.186 147.871 115.515 147.871 115.907C147.871 116.621 147.605 117.183 147.073 117.594C146.546 118 145.818 118.203 144.889 118.203ZM153.539 118C153.115 118.089 152.695 118.124 152.279 118.105C151.869 118.086 151.5 117.998 151.173 117.839C150.851 117.68 150.606 117.433 150.438 117.097C150.303 116.817 150.228 116.535 150.214 116.25C150.205 115.961 150.2 115.632 150.2 115.263V108.34H151.222V115.221C151.222 115.538 151.225 115.804 151.229 116.019C151.239 116.229 151.288 116.416 151.376 116.579C151.544 116.892 151.81 117.078 152.174 117.139C152.543 117.2 152.998 117.186 153.539 117.097V118ZM148.583 111.322V110.44H153.539V111.322H148.583ZM155.169 109.005V107.85H156.198V109.005H155.169ZM155.169 118V110.44H156.198V118H155.169ZM161.453 118.21C160.702 118.21 160.06 118.04 159.528 117.699C158.996 117.358 158.588 116.887 158.303 116.285C158.019 115.683 157.876 114.992 157.876 114.213C157.876 113.42 158.021 112.724 158.31 112.127C158.6 111.53 159.01 111.065 159.542 110.734C160.079 110.398 160.716 110.23 161.453 110.23C162.209 110.23 162.853 110.4 163.385 110.741C163.922 111.077 164.33 111.546 164.61 112.148C164.895 112.745 165.037 113.434 165.037 114.213C165.037 115.006 164.895 115.704 164.61 116.306C164.326 116.903 163.915 117.37 163.378 117.706C162.842 118.042 162.2 118.21 161.453 118.21ZM161.453 117.223C162.293 117.223 162.919 116.945 163.329 116.39C163.74 115.83 163.945 115.104 163.945 114.213C163.945 113.298 163.738 112.57 163.322 112.029C162.912 111.488 162.289 111.217 161.453 111.217C160.889 111.217 160.422 111.345 160.053 111.602C159.689 111.854 159.416 112.206 159.234 112.659C159.057 113.107 158.968 113.625 158.968 114.213C158.968 115.123 159.178 115.853 159.598 116.404C160.018 116.95 160.637 117.223 161.453 117.223ZM172.042 118V114.143C172.042 113.723 172.002 113.338 171.923 112.988C171.843 112.633 171.715 112.325 171.538 112.064C171.365 111.798 171.139 111.593 170.859 111.448C170.583 111.303 170.247 111.231 169.851 111.231C169.487 111.231 169.165 111.294 168.885 111.42C168.609 111.546 168.376 111.728 168.185 111.966C167.998 112.199 167.856 112.484 167.758 112.82C167.66 113.156 167.611 113.539 167.611 113.968L166.883 113.807C166.883 113.032 167.018 112.381 167.289 111.854C167.559 111.327 167.933 110.928 168.409 110.657C168.885 110.386 169.431 110.251 170.047 110.251C170.499 110.251 170.894 110.321 171.23 110.461C171.57 110.601 171.857 110.79 172.091 111.028C172.329 111.266 172.52 111.539 172.665 111.847C172.809 112.15 172.914 112.475 172.98 112.82C173.045 113.161 173.078 113.501 173.078 113.842V118H172.042ZM166.575 118V110.44H167.506V112.302H167.611V118H166.575ZM177.715 118.203C176.828 118.203 176.098 118.012 175.524 117.629C174.955 117.246 174.605 116.714 174.474 116.033L175.524 115.858C175.636 116.287 175.89 116.63 176.287 116.887C176.688 117.139 177.183 117.265 177.771 117.265C178.345 117.265 178.798 117.146 179.129 116.908C179.46 116.665 179.626 116.336 179.626 115.921C179.626 115.688 179.572 115.499 179.465 115.354C179.362 115.205 179.15 115.067 178.828 114.941C178.506 114.815 178.025 114.666 177.386 114.493C176.7 114.306 176.163 114.12 175.776 113.933C175.389 113.746 175.113 113.532 174.95 113.289C174.787 113.042 174.705 112.741 174.705 112.386C174.705 111.957 174.826 111.581 175.069 111.259C175.312 110.932 175.648 110.68 176.077 110.503C176.506 110.321 177.006 110.23 177.575 110.23C178.144 110.23 178.653 110.323 179.101 110.51C179.554 110.692 179.918 110.949 180.193 111.28C180.468 111.611 180.632 111.996 180.683 112.435L179.633 112.624C179.563 112.181 179.341 111.831 178.968 111.574C178.599 111.313 178.13 111.177 177.561 111.168C177.024 111.154 176.588 111.257 176.252 111.476C175.916 111.691 175.748 111.978 175.748 112.337C175.748 112.538 175.809 112.71 175.93 112.855C176.051 112.995 176.271 113.128 176.588 113.254C176.91 113.38 177.367 113.518 177.96 113.667C178.655 113.844 179.201 114.031 179.598 114.227C179.995 114.423 180.277 114.654 180.445 114.92C180.613 115.186 180.697 115.515 180.697 115.907C180.697 116.621 180.431 117.183 179.899 117.594C179.372 118 178.644 118.203 177.715 118.203ZM184.224 115.249C184.224 114.885 184.24 114.565 184.273 114.29C184.31 114.01 184.403 113.73 184.553 113.45C184.693 113.184 184.865 112.965 185.071 112.792C185.276 112.615 185.491 112.449 185.715 112.295C185.939 112.136 186.151 111.95 186.352 111.735C186.534 111.525 186.655 111.313 186.716 111.098C186.776 110.883 186.807 110.657 186.807 110.419C186.807 110.181 186.776 109.969 186.716 109.782C186.66 109.595 186.571 109.434 186.45 109.299C186.263 109.07 186.034 108.914 185.764 108.83C185.493 108.746 185.211 108.704 184.917 108.704C184.627 108.704 184.357 108.746 184.105 108.83C183.857 108.909 183.652 109.033 183.489 109.201C183.33 109.35 183.213 109.53 183.139 109.74C183.069 109.95 183.034 110.172 183.034 110.405H181.97C181.988 110.036 182.068 109.677 182.208 109.327C182.352 108.972 182.562 108.676 182.838 108.438C183.113 108.186 183.433 108.004 183.797 107.892C184.165 107.775 184.536 107.717 184.91 107.717C185.367 107.717 185.801 107.787 186.212 107.927C186.622 108.062 186.968 108.291 187.248 108.613C187.472 108.851 187.635 109.124 187.738 109.432C187.845 109.735 187.899 110.06 187.899 110.405C187.899 110.792 187.826 111.156 187.682 111.497C187.537 111.838 187.334 112.141 187.073 112.407C186.914 112.58 186.734 112.741 186.534 112.89C186.333 113.035 186.139 113.186 185.953 113.345C185.771 113.499 185.631 113.667 185.533 113.849C185.411 114.073 185.344 114.285 185.33 114.486C185.32 114.687 185.316 114.941 185.316 115.249H184.224ZM184.231 118V116.628H185.316V118H184.231Z" fill="#565973"/>
<path d="M58.6567 159.21C57.6487 159.21 56.7901 158.991 56.0807 158.552C55.3714 158.109 54.8277 157.493 54.4497 156.704C54.0764 155.915 53.8897 155.001 53.8897 153.96C53.8897 152.919 54.0764 152.005 54.4497 151.216C54.8277 150.427 55.3714 149.814 56.0807 149.375C56.7901 148.932 57.6487 148.71 58.6567 148.71C59.8187 148.71 60.7801 149.004 61.5407 149.592C62.3061 150.18 62.8381 150.971 63.1367 151.965L61.6527 152.364C61.4567 151.659 61.1067 151.106 60.6027 150.705C60.1034 150.304 59.4547 150.103 58.6567 150.103C57.9427 150.103 57.3477 150.264 56.8717 150.586C56.3957 150.908 56.0364 151.358 55.7937 151.937C55.5557 152.516 55.4367 153.19 55.4367 153.96C55.4321 154.73 55.5487 155.404 55.7867 155.983C56.0294 156.562 56.3887 157.012 56.8647 157.334C57.3454 157.656 57.9427 157.817 58.6567 157.817C59.4547 157.817 60.1034 157.616 60.6027 157.215C61.1067 156.809 61.4567 156.256 61.6527 155.556L63.1367 155.955C62.8381 156.949 62.3061 157.74 61.5407 158.328C60.7801 158.916 59.8187 159.21 58.6567 159.21ZM67.9593 159.21C67.2033 159.21 66.5476 159.04 65.9923 158.699C65.437 158.358 65.0076 157.889 64.7043 157.292C64.4056 156.69 64.2563 155.997 64.2563 155.213C64.2563 154.424 64.4103 153.731 64.7183 153.134C65.0263 152.532 65.458 152.065 66.0133 151.734C66.5686 151.398 67.2173 151.23 67.9593 151.23C68.7153 151.23 69.371 151.4 69.9263 151.741C70.4816 152.082 70.911 152.551 71.2143 153.148C71.5176 153.745 71.6693 154.434 71.6693 155.213C71.6693 156.002 71.5153 156.697 71.2073 157.299C70.904 157.896 70.4746 158.365 69.9193 158.706C69.364 159.042 68.7106 159.21 67.9593 159.21ZM67.9593 157.831C68.6826 157.831 69.2216 157.588 69.5763 157.103C69.9356 156.613 70.1153 155.983 70.1153 155.213C70.1153 154.424 69.9333 153.794 69.5693 153.323C69.21 152.847 68.6733 152.609 67.9593 152.609C67.4693 152.609 67.0656 152.721 66.7483 152.945C66.431 153.164 66.1953 153.47 66.0413 153.862C65.8873 154.249 65.8103 154.7 65.8103 155.213C65.8103 156.006 65.9923 156.641 66.3563 157.117C66.7203 157.593 67.2546 157.831 67.9593 157.831ZM78.5135 159V155.283C78.5135 154.989 78.4879 154.688 78.4365 154.38C78.3899 154.067 78.2965 153.778 78.1565 153.512C78.0212 153.246 77.8275 153.031 77.5755 152.868C77.3282 152.705 77.0039 152.623 76.6025 152.623C76.3412 152.623 76.0939 152.667 75.8605 152.756C75.6272 152.84 75.4219 152.978 75.2445 153.169C75.0719 153.36 74.9342 153.612 74.8315 153.925C74.7335 154.238 74.6845 154.618 74.6845 155.066L73.7745 154.723C73.7745 154.037 73.9029 153.433 74.1595 152.91C74.4162 152.383 74.7849 151.972 75.2655 151.678C75.7462 151.384 76.3272 151.237 77.0085 151.237C77.5312 151.237 77.9699 151.321 78.3245 151.489C78.6792 151.657 78.9662 151.879 79.1855 152.154C79.4095 152.425 79.5799 152.721 79.6965 153.043C79.8132 153.365 79.8925 153.68 79.9345 153.988C79.9765 154.296 79.9975 154.567 79.9975 154.8V159H78.5135ZM73.2005 159V151.44H74.5095V153.624H74.6845V159H73.2005ZM86.1468 159C85.6708 159.093 85.2042 159.133 84.7468 159.119C84.2895 159.105 83.8812 159.016 83.5218 158.853C83.1625 158.69 82.8918 158.433 82.7098 158.083C82.5465 157.77 82.4578 157.453 82.4438 157.131C82.4345 156.804 82.4298 156.436 82.4298 156.025V149.34H83.8998V155.955C83.8998 156.258 83.9022 156.522 83.9068 156.746C83.9162 156.97 83.9652 157.159 84.0538 157.313C84.2218 157.602 84.4878 157.768 84.8518 157.81C85.2205 157.847 85.6522 157.831 86.1468 157.761V159ZM80.9808 152.616V151.44H86.1468V152.616H80.9808ZM89.8757 159.21C89.3157 159.21 88.8467 159.107 88.4687 158.902C88.0907 158.692 87.8037 158.417 87.6077 158.076C87.4164 157.731 87.3207 157.353 87.3207 156.942C87.3207 156.559 87.3884 156.223 87.5237 155.934C87.6591 155.645 87.8597 155.4 88.1257 155.199C88.3917 154.994 88.7184 154.828 89.1057 154.702C89.4417 154.604 89.8221 154.518 90.2467 154.443C90.6714 154.368 91.1171 154.298 91.5837 154.233C92.0551 154.168 92.5217 154.102 92.9837 154.037L92.4517 154.331C92.4611 153.738 92.3351 153.3 92.0737 153.015C91.8171 152.726 91.3737 152.581 90.7437 152.581C90.3471 152.581 89.9831 152.674 89.6517 152.861C89.3204 153.043 89.0894 153.346 88.9587 153.771L87.5937 153.351C87.7804 152.702 88.1351 152.187 88.6577 151.804C89.1851 151.421 89.8851 151.23 90.7577 151.23C91.4344 151.23 92.0224 151.347 92.5217 151.58C93.0257 151.809 93.3944 152.173 93.6277 152.672C93.7491 152.919 93.8237 153.181 93.8517 153.456C93.8797 153.731 93.8937 154.028 93.8937 154.345V159H92.5987V157.271L92.8507 157.495C92.5381 158.074 92.1391 158.505 91.6537 158.79C91.1731 159.07 90.5804 159.21 89.8757 159.21ZM90.1347 158.013C90.5501 158.013 90.9071 157.941 91.2057 157.796C91.5044 157.647 91.7447 157.458 91.9267 157.229C92.1087 157 92.2277 156.762 92.2837 156.515C92.3631 156.291 92.4074 156.039 92.4167 155.759C92.4307 155.479 92.4377 155.255 92.4377 155.087L92.9137 155.262C92.4517 155.332 92.0317 155.395 91.6537 155.451C91.2757 155.507 90.9327 155.563 90.6247 155.619C90.3214 155.67 90.0507 155.733 89.8127 155.808C89.6121 155.878 89.4324 155.962 89.2737 156.06C89.1197 156.158 88.9961 156.277 88.9027 156.417C88.8141 156.557 88.7697 156.727 88.7697 156.928C88.7697 157.124 88.8187 157.306 88.9167 157.474C89.0147 157.637 89.1641 157.768 89.3647 157.866C89.5654 157.964 89.8221 158.013 90.1347 158.013ZM98.9454 159.21C98.1708 159.21 97.5128 159.037 96.9714 158.692C96.4301 158.347 96.0148 157.873 95.7254 157.271C95.4408 156.669 95.2961 155.985 95.2914 155.22C95.2961 154.441 95.4454 153.752 95.7394 153.155C96.0334 152.553 96.4534 152.082 96.9994 151.741C97.5454 151.4 98.2011 151.23 98.9664 151.23C99.7924 151.23 100.497 151.435 101.08 151.846C101.668 152.257 102.056 152.819 102.242 153.533L100.786 153.953C100.642 153.528 100.404 153.199 100.072 152.966C99.7458 152.728 99.3701 152.609 98.9454 152.609C98.4648 152.609 98.0704 152.723 97.7624 152.952C97.4544 153.176 97.2258 153.484 97.0764 153.876C96.9271 154.268 96.8501 154.716 96.8454 155.22C96.8501 155.999 97.0274 156.629 97.3774 157.11C97.7321 157.591 98.2548 157.831 98.9454 157.831C99.4168 157.831 99.7971 157.724 100.086 157.509C100.38 157.29 100.604 156.977 100.758 156.571L102.242 156.921C101.995 157.658 101.587 158.225 101.017 158.622C100.448 159.014 99.7574 159.21 98.9454 159.21ZM107.994 159C107.518 159.093 107.052 159.133 106.594 159.119C106.137 159.105 105.729 159.016 105.369 158.853C105.01 158.69 104.739 158.433 104.557 158.083C104.394 157.77 104.305 157.453 104.291 157.131C104.282 156.804 104.277 156.436 104.277 156.025V149.34H105.747V155.955C105.747 156.258 105.75 156.522 105.754 156.746C105.764 156.97 105.813 157.159 105.901 157.313C106.069 157.602 106.335 157.768 106.699 157.81C107.068 157.847 107.5 157.831 107.994 157.761V159ZM102.828 152.616V151.44H107.994V152.616H102.828ZM115.24 159.203C114.717 159.203 114.279 159.119 113.924 158.951C113.569 158.783 113.28 158.564 113.056 158.293C112.837 158.018 112.669 157.719 112.552 157.397C112.435 157.075 112.356 156.76 112.314 156.452C112.272 156.144 112.251 155.873 112.251 155.64V151.44H113.735V155.157C113.735 155.451 113.758 155.754 113.805 156.067C113.856 156.375 113.95 156.662 114.085 156.928C114.225 157.194 114.419 157.409 114.666 157.572C114.918 157.735 115.245 157.817 115.646 157.817C115.907 157.817 116.155 157.775 116.388 157.691C116.621 157.602 116.824 157.462 116.997 157.271C117.174 157.08 117.312 156.828 117.41 156.515C117.513 156.202 117.564 155.822 117.564 155.374L118.474 155.717C118.474 156.403 118.346 157.01 118.089 157.537C117.832 158.06 117.464 158.468 116.983 158.762C116.502 159.056 115.921 159.203 115.24 159.203ZM117.739 159V156.816H117.564V151.44H119.041V159H117.739ZM123.895 159.203C122.976 159.203 122.227 159 121.648 158.594C121.07 158.188 120.715 157.616 120.584 156.879L122.082 156.648C122.176 157.04 122.39 157.35 122.726 157.579C123.067 157.803 123.489 157.915 123.993 157.915C124.451 157.915 124.808 157.822 125.064 157.635C125.326 157.448 125.456 157.192 125.456 156.865C125.456 156.674 125.41 156.52 125.316 156.403C125.228 156.282 125.039 156.167 124.749 156.06C124.46 155.953 124.019 155.82 123.426 155.661C122.778 155.493 122.262 155.313 121.879 155.122C121.501 154.926 121.231 154.7 121.067 154.443C120.909 154.182 120.829 153.867 120.829 153.498C120.829 153.041 120.951 152.642 121.193 152.301C121.436 151.96 121.777 151.697 122.215 151.51C122.659 151.323 123.177 151.23 123.769 151.23C124.348 151.23 124.864 151.321 125.316 151.503C125.769 151.685 126.135 151.944 126.415 152.28C126.695 152.611 126.863 153.001 126.919 153.449L125.421 153.722C125.37 153.358 125.2 153.071 124.91 152.861C124.621 152.651 124.245 152.537 123.783 152.518C123.34 152.499 122.981 152.574 122.705 152.742C122.43 152.905 122.292 153.132 122.292 153.421C122.292 153.589 122.344 153.731 122.446 153.848C122.554 153.965 122.759 154.077 123.062 154.184C123.366 154.291 123.814 154.42 124.406 154.569C125.041 154.732 125.545 154.914 125.918 155.115C126.292 155.311 126.558 155.547 126.716 155.822C126.88 156.093 126.961 156.422 126.961 156.809C126.961 157.556 126.688 158.141 126.142 158.566C125.601 158.991 124.852 159.203 123.895 159.203Z" fill="#6366F1"/>
<path d="M145.411 158.411L146.589 159.589L152.178 154L146.589 148.411L145.411 149.589L148.988 153.167H141V154.833H148.988L145.411 158.411Z" fill="#6366F1"/>
<defs>
<clipPath id="clip0_20005129_590">
<rect width="28" height="28" fill="white" transform="translate(53 58)"/>
</clipPath>
</defs>
</svg>
