<svg width="105" height="26" viewBox="0 0 105 26" fill="none" xmlns="http://www.w3.org/2000/svg">
<g clip-path="url(#clip0_20005129_217)">
<g clip-path="url(#clip1_20005129_217)">
<g clip-path="url(#clip2_20005129_217)">
<path d="M34.1638 3.76993C34.1638 4.53743 33.9336 5.07468 33.4731 5.53518C32.9358 6.07243 32.3218 6.30268 31.4776 6.30268C30.7101 6.30268 30.0193 6.07243 29.4821 5.53518C28.9448 4.99793 28.6378 4.38393 28.6378 3.61643C28.6378 2.84893 28.9448 2.15818 29.4821 1.69768C30.0193 1.16043 30.7101 0.930176 31.4776 0.930176C31.8613 0.930176 32.2451 1.00693 32.5521 1.16043C32.9358 1.31393 33.1661 1.46743 33.3963 1.77443L33.0126 2.08143C32.6288 1.62093 32.1683 1.46743 31.5543 1.46743C31.0171 1.46743 30.4798 1.69768 30.0961 2.08143C29.7123 2.46518 29.4821 3.00243 29.4821 3.61643C29.4821 4.23043 29.7123 4.76768 30.0961 5.15143C30.4798 5.53518 31.0171 5.76543 31.5543 5.76543C32.1683 5.76543 32.6288 5.53518 33.0893 5.15143C33.3196 4.92118 33.4731 4.53743 33.5498 4.07693H31.6311V3.30943H34.2406C34.1638 3.46293 34.1638 3.61643 34.1638 3.76993Z" fill="white"/>
<path d="M38.3083 1.54418H35.8523V3.23268H38.078V3.84668H35.8523V5.53518H38.3083V6.14918H35.1615V0.930176H38.3083V1.54418Z" fill="white"/>
<path d="M41.2248 6.14918H40.534V1.54418H38.999V0.930176H42.683V1.54418H41.148V6.14918H41.2248Z" fill="white"/>
<path d="M45.3693 6.14918V0.930176H46.06V6.14918H45.3693Z" fill="white"/>
<path d="M49.13 6.14918H48.4393V1.54418H46.9043V0.930176H50.665V1.54418H49.13V6.14918Z" fill="white"/>
<path d="M57.6492 5.45852C57.112 5.99577 56.498 6.22602 55.6537 6.22602C54.8862 6.22602 54.1955 5.99577 53.6582 5.45852C53.121 4.92127 52.8907 4.30727 52.8907 3.53977C52.8907 2.77227 53.121 2.15827 53.6582 1.62102C54.1955 1.08377 54.8095 0.853516 55.6537 0.853516C56.4212 0.853516 57.112 1.08377 57.6492 1.62102C58.1865 2.15827 58.4167 2.77227 58.4167 3.53977C58.4167 4.30727 58.1865 4.92127 57.6492 5.45852ZM54.1955 4.99802C54.5792 5.38177 55.1165 5.61202 55.6537 5.61202C56.191 5.61202 56.7282 5.38177 57.112 4.99802C57.4957 4.61427 57.726 4.07702 57.726 3.46302C57.726 2.84902 57.4957 2.31177 57.112 1.92802C56.7282 1.54427 56.191 1.31402 55.6537 1.31402C55.0397 1.31402 54.5792 1.54427 54.1955 1.92802C53.8117 2.31177 53.5815 2.84902 53.5815 3.46302C53.5815 4.15377 53.8117 4.61427 54.1955 4.99802Z" fill="white"/>
<path d="M59.4146 6.14918V0.930176H60.2588L62.8683 4.99793V4.00018V0.930176H63.5591V6.14918H62.8683L60.1053 1.85118V2.84893V6.14918H59.4146Z" fill="white"/>
<path d="M52.7373 13.8242C50.665 13.8242 48.8998 15.3592 48.8998 17.5082C48.8998 19.6572 50.5883 21.1922 52.7373 21.1922C54.8095 21.1922 56.5748 19.5804 56.5748 17.5082C56.5748 15.3592 54.8095 13.8242 52.7373 13.8242ZM52.7373 19.8107C51.586 19.8107 50.5883 18.8897 50.5883 17.5849C50.5883 16.2802 51.586 15.3592 52.7373 15.3592C53.8885 15.3592 54.8863 16.2802 54.8863 17.5849C54.8863 18.8129 53.8885 19.8107 52.7373 19.8107ZM44.3715 13.8242C42.2993 13.8242 40.534 15.3592 40.534 17.5082C40.534 19.6572 42.2225 21.1922 44.3715 21.1922C46.4438 21.1922 48.209 19.5804 48.209 17.5082C48.209 15.3592 46.5205 13.8242 44.3715 13.8242ZM44.3715 19.8107C43.2203 19.8107 42.2225 18.8897 42.2225 17.5849C42.2225 16.2802 43.2203 15.3592 44.3715 15.3592C45.5228 15.3592 46.5205 16.2802 46.5205 17.5849C46.5205 18.8129 45.5228 19.8107 44.3715 19.8107ZM34.4708 14.9754V16.5872H38.3083C38.2315 17.5082 37.9245 18.1222 37.464 18.5827C36.9268 19.1199 36.0058 19.7339 34.4708 19.7339C32.0915 19.7339 30.2495 17.8919 30.2495 15.5127C30.2495 13.1334 32.0915 11.2914 34.4708 11.2914C35.7755 11.2914 36.6965 11.7519 37.3873 12.4427L38.5385 11.2914C37.5408 10.3704 36.3128 9.67969 34.4708 9.67969C31.1705 9.67969 28.4843 12.2892 28.4843 15.4359C28.4843 18.5827 31.2473 21.1922 34.4708 21.1922C36.236 21.1922 37.5408 20.6549 38.6153 19.5804C39.6898 18.5059 39.9968 17.0477 39.9968 15.8964C39.9968 15.5127 39.9968 15.2057 39.92 14.8987H34.4708V14.9754ZM75.0715 16.2034C74.7645 15.3592 73.7668 13.8242 71.7713 13.8242C69.7758 13.8242 68.164 15.3592 68.164 17.5082C68.164 19.5804 69.7757 21.1922 71.9248 21.1922C73.69 21.1922 74.6878 20.1177 75.0715 19.5804L73.7668 18.7362C73.3063 19.3502 72.769 19.7339 71.9248 19.7339C71.0805 19.7339 70.4665 19.3502 70.0828 18.5827L75.1483 16.5104L75.0715 16.2034ZM69.8525 17.4314C69.7758 15.9732 71.0038 15.2824 71.848 15.2824C72.5388 15.2824 73.076 15.5894 73.2295 16.0499L69.8525 17.4314ZM65.708 21.0387H67.3965V10.0634H65.708V21.0387ZM62.945 14.6684C62.4845 14.2079 61.7938 13.8242 60.8728 13.8242C58.954 13.8242 57.1888 15.4359 57.1888 17.5849C57.1888 19.6572 58.954 21.2689 60.8728 21.2689C61.7938 21.2689 62.4845 20.8852 62.8683 20.4247H62.945V20.9619C62.945 22.4202 62.1775 23.1109 60.9495 23.1109C59.9518 23.1109 59.261 22.4202 59.0308 21.8062L57.5725 22.3434C57.9563 23.3412 59.1075 24.5692 60.9495 24.5692C62.945 24.5692 64.5568 23.4179 64.5568 20.7317V14.0544H62.945V14.6684ZM61.0263 19.8107C59.875 19.8107 58.8773 18.8897 58.8773 17.5849C58.8773 16.2802 59.875 15.2824 61.0263 15.2824C62.1775 15.2824 63.0985 16.2034 63.0985 17.5849C63.0985 18.8129 62.1775 19.8107 61.0263 19.8107ZM82.9 10.0634H78.909V20.9619H80.5975V16.8174H82.9C84.742 16.8174 86.584 15.5127 86.584 13.4404C86.584 11.3682 84.742 10.0634 82.9 10.0634ZM82.9 15.3592H80.5208V11.5984H82.9C84.128 11.5984 84.8955 12.5962 84.8955 13.4404C84.8955 14.3614 84.2048 15.3592 82.9 15.3592ZM93.2613 13.7474C92.0333 13.7474 90.8053 14.2847 90.268 15.4359L91.7263 16.0499C92.0333 15.4359 92.6473 15.2824 93.2613 15.2824C94.1055 15.2824 95.0265 15.8197 95.0265 16.6639V16.8174C94.7195 16.6639 94.1055 16.3569 93.2613 16.3569C91.6495 16.3569 90.0378 17.2012 90.0378 18.8129C90.0378 20.2712 91.3425 21.1922 92.8008 21.1922C93.952 21.1922 94.566 20.7317 94.9498 20.1177H95.0265V20.9619H96.6383V16.8174C96.6383 14.8987 95.18 13.7474 93.2613 13.7474ZM93.031 19.8107C92.4938 19.8107 91.7263 19.5804 91.7263 18.8897C91.7263 18.0454 92.6473 17.7384 93.4915 17.7384C94.259 17.7384 94.566 17.8919 95.0265 18.1222C94.873 19.0432 94.0287 19.8107 93.031 19.8107ZM102.548 14.0544L100.629 18.8129H100.553L98.557 14.0544H96.7917L99.785 20.6549L98.0965 24.3389H99.8618L104.467 14.0544H102.548ZM87.505 21.0387H89.1935V10.0634H87.505V21.0387Z" fill="white"/>
<path d="M0.39376 1.39062C0.16351 1.62088 0.0100098 2.08138 0.0100098 2.61863V21.9596C0.0100098 22.4969 0.16351 22.9574 0.39376 23.1876L0.47051 23.2644L11.5993 12.4426V12.2124L0.39376 1.39062Z" fill="url(#paint0_linear_20005129_217)"/>
<path d="M15.2832 15.9733L11.5992 12.3661V12.1358L15.2832 8.52856L15.36 8.60531L19.7347 11.0613C20.9627 11.7521 20.9627 12.9033 19.7347 13.5941L15.36 15.9733H15.2832Z" fill="url(#paint1_linear_20005129_217)"/>
<path d="M15.36 15.9733L11.5993 12.2893L0.393799 23.1878C0.854299 23.5716 1.54505 23.6483 2.31255 23.1878L15.36 15.9733Z" fill="url(#paint2_linear_20005129_217)"/>
<path d="M15.36 8.60528L2.31255 1.31403C1.54505 0.93028 0.854299 0.93028 0.393799 1.39078L11.5225 12.2893L15.36 8.60528Z" fill="url(#paint3_linear_20005129_217)"/>
</g>
</g>
</g>
<defs>
<linearGradient id="paint0_linear_20005129_217" x1="10.4935" y1="22.2518" x2="-4.17808" y2="7.2247" gradientUnits="userSpaceOnUse">
<stop stop-color="#00A0FF"/>
<stop offset="0.0066" stop-color="#00A1FF"/>
<stop offset="0.2601" stop-color="#00BEFF"/>
<stop offset="0.5122" stop-color="#00D2FF"/>
<stop offset="0.7604" stop-color="#00DFFF"/>
<stop offset="1" stop-color="#00E3FF"/>
</linearGradient>
<linearGradient id="paint1_linear_20005129_217" x1="21.3828" y1="12.2705" x2="-0.289563" y2="12.2705" gradientUnits="userSpaceOnUse">
<stop stop-color="#FFE000"/>
<stop offset="0.4087" stop-color="#FFBD00"/>
<stop offset="0.7754" stop-color="#FFA500"/>
<stop offset="1" stop-color="#FF9C00"/>
</linearGradient>
<linearGradient id="paint2_linear_20005129_217" x1="5.89048" y1="17.5119" x2="-14.0054" y2="-2.86606" gradientUnits="userSpaceOnUse">
<stop stop-color="#FF3A44"/>
<stop offset="1" stop-color="#C31162"/>
</linearGradient>
<linearGradient id="paint3_linear_20005129_217" x1="-9.43258" y1="22.7264" x2="-0.548154" y2="13.6267" gradientUnits="userSpaceOnUse">
<stop stop-color="#32A071"/>
<stop offset="0.0685" stop-color="#2DA771"/>
<stop offset="0.4762" stop-color="#15CF74"/>
<stop offset="0.8009" stop-color="#06E775"/>
<stop offset="1" stop-color="#00F076"/>
</linearGradient>
<clipPath id="clip0_20005129_217">
<rect width="104.4" height="24.56" fill="white" transform="translate(0 0.699951)"/>
</clipPath>
<clipPath id="clip1_20005129_217">
<rect width="104.4" height="24.56" fill="white" transform="translate(0 0.699951)"/>
</clipPath>
<clipPath id="clip2_20005129_217">
<rect width="104.38" height="24.56" fill="white" transform="translate(0.0100098 0.699951)"/>
</clipPath>
</defs>
</svg>
