<svg width="16" height="16" viewBox="0 0 16 16" fill="none" xmlns="http://www.w3.org/2000/svg">
<path d="M4.34448 9.54866L3.35115 13.85C3.28981 14.116 3.39648 14.3927 3.62181 14.548C3.73581 14.6267 3.86781 14.6667 4.00048 14.6667C4.12915 14.6667 4.25848 14.6293 4.37048 14.5547L8.00048 12.1347L11.6305 14.5547C11.8625 14.7093 12.1671 14.7033 12.3938 14.5387C12.6191 14.374 12.7185 14.0853 12.6418 13.8173L11.4225 9.55066L14.4465 6.82933C14.6445 6.65066 14.7171 6.372 14.6318 6.12C14.5458 5.868 14.3185 5.69066 14.0531 5.66933L10.2525 5.36666L8.60781 1.72599C8.50048 1.48666 8.26248 1.33333 8.00048 1.33333C7.73848 1.33333 7.50048 1.48666 7.39315 1.72599L5.74848 5.36666L1.94781 5.66866C1.68648 5.68933 1.46181 5.86066 1.37381 6.10666C1.28448 6.35266 1.34848 6.628 1.53515 6.81066L4.34448 9.54866ZM6.24648 6.66466C6.48848 6.64533 6.70181 6.496 6.80115 6.274L8.00048 3.61999L9.19981 6.274C9.29915 6.496 9.51248 6.64533 9.75448 6.66466L12.4025 6.87466L10.2218 8.83733C10.0325 9.00799 9.95715 9.27066 10.0265 9.516L10.8618 12.4393L8.37115 10.7787C8.14715 10.6287 7.85581 10.6287 7.63181 10.7787L5.02915 12.514L5.72915 9.48333C5.78115 9.25666 5.71181 9.01866 5.54515 8.85666L3.51981 6.882L6.24648 6.66466Z" fill="#B4B7C9"/>
</svg>
