<svg width="127" height="44" viewBox="0 0 127 44" fill="none" xmlns="http://www.w3.org/2000/svg">
<rect x="0.699951" y="0.609863" width="125" height="42.9" rx="7.5" fill="#131022"/>
<rect x="0.699951" y="0.609863" width="125" height="42.9" rx="7.5" stroke="#131022"/>
<g clip-path="url(#clip0_20005129_189)">
<g clip-path="url(#clip1_20005129_189)">
<g clip-path="url(#clip2_20005129_189)">
<path d="M31.6868 22.1698C31.6868 19.5211 33.928 18.2306 33.9959 18.1627C32.7055 16.329 30.7359 16.1252 30.0568 16.0573C28.4268 15.8536 26.7968 17.0081 25.9139 17.0081C25.0309 17.0081 23.7405 16.0573 22.3143 16.0573C20.4805 16.0573 18.7826 17.0761 17.8997 18.7061C15.998 21.9661 17.4243 26.7202 19.258 29.3011C20.2089 30.5915 21.2276 32.0177 22.6539 31.9498C24.0122 31.8819 24.5555 31.0669 26.1855 31.0669C27.8155 31.0669 28.2909 31.9498 29.7172 31.8819C31.2114 31.8819 32.0943 30.5915 32.9772 29.3011C34.0639 27.8069 34.4714 26.3806 34.4714 26.3127C34.5393 26.3806 31.6868 25.3619 31.6868 22.1698Z" fill="white"/>
<path d="M28.9701 14.3595C29.7172 13.4765 30.1926 12.254 30.0568 10.9636C28.9701 11.0315 27.6797 11.7107 26.8647 12.5936C26.1855 13.3407 25.5743 14.6311 25.7101 15.8536C26.9326 15.9215 28.223 15.2424 28.9701 14.3595Z" fill="white"/>
<path d="M51.5184 31.814H49.6167L48.598 28.6219H44.8626L43.8438 31.814H41.9421L45.5417 20.8794H47.783L51.5184 31.814ZM48.1905 27.2636L47.2396 24.4111C47.1717 24.1394 46.968 23.4602 46.6963 22.3736C46.5605 22.849 46.4246 23.5281 46.153 24.4111L45.2021 27.2636H48.1905Z" fill="white"/>
<path d="M60.823 27.8069C60.823 29.1653 60.4834 30.184 59.7363 30.999C59.0572 31.6782 58.2422 32.0178 57.2234 32.0178C56.1367 32.0178 55.3897 31.6103 54.9142 30.8632V35.0061H53.0805V26.5165C53.0805 25.7015 53.0805 24.8186 53.0126 23.9357H54.5747L54.6426 25.1582C55.2538 24.2074 56.1367 23.7319 57.3592 23.7319C58.3101 23.7319 59.1251 24.0715 59.7363 24.8186C60.4834 25.6336 60.823 26.5844 60.823 27.8069ZM58.9892 27.8749C58.9892 27.1278 58.7855 26.4486 58.4459 25.9732C58.0384 25.4298 57.563 25.2261 56.8838 25.2261C56.4084 25.2261 56.0688 25.3619 55.6613 25.6336C55.3217 25.9053 55.0501 26.3128 54.9822 26.7882C54.9142 26.9919 54.9142 27.1957 54.9142 27.3315V28.6219C54.9142 29.1653 55.118 29.7086 55.4576 30.0482C55.7972 30.4557 56.2726 30.6594 56.8838 30.6594C57.563 30.6594 58.1063 30.3878 58.4459 29.9124C58.7855 29.369 58.9892 28.6899 58.9892 27.8749Z" fill="white"/>
<path d="M70.1276 27.8069C70.1276 29.1653 69.788 30.184 69.0409 30.999C68.3617 31.6782 67.5467 32.0178 66.528 32.0178C65.4413 32.0178 64.6942 31.6103 64.2188 30.8632V35.0061H62.3851V26.5165C62.3851 25.7015 62.3851 24.8186 62.3171 23.9357H63.8792L63.9471 25.1582C64.5584 24.2074 65.4413 23.7319 66.6638 23.7319C67.6146 23.7319 68.4296 24.0715 69.0409 24.8186C69.788 25.6336 70.1276 26.5844 70.1276 27.8069ZM68.2938 27.8749C68.2938 27.1278 68.0901 26.4486 67.7505 25.9732C67.343 25.4298 66.8676 25.2261 66.1884 25.2261C65.713 25.2261 65.3734 25.3619 64.9659 25.6336C64.6263 25.9053 64.3546 26.3128 64.2867 26.7882C64.2188 26.9919 64.2188 27.1957 64.2188 27.3315V28.6219C64.2188 29.1653 64.4226 29.7086 64.7621 30.0482C65.1017 30.4557 65.5771 30.6594 66.1884 30.6594C66.8676 30.6594 67.4109 30.3878 67.7505 29.9124C68.0901 29.369 68.2938 28.6899 68.2938 27.8749Z" fill="white"/>
<path d="M80.5867 28.7577C80.5867 29.7085 80.2471 30.4556 79.568 31.0668C78.8209 31.6781 77.8021 32.0177 76.5117 32.0177C75.2892 32.0177 74.3384 31.8139 73.5913 31.3385L73.9988 29.8443C74.8138 30.3197 75.6288 30.5235 76.5796 30.5235C77.2588 30.5235 77.8021 30.3877 78.1417 30.0481C78.5492 29.7764 78.6851 29.3689 78.6851 28.8256C78.6851 28.3502 78.5492 28.0106 78.2096 27.671C77.8701 27.3993 77.3946 27.0598 76.6476 26.856C74.678 26.1089 73.7271 25.0902 73.7271 23.7318C73.7271 22.8489 74.0667 22.1018 74.7459 21.4906C75.4251 20.9472 76.3759 20.6077 77.5305 20.6077C78.5492 20.6077 79.4321 20.8114 80.1113 21.151L79.6359 22.5772C79.0246 22.2377 78.2776 22.1018 77.4626 22.1018C76.8513 22.1018 76.308 22.2377 75.9684 22.5772C75.6967 22.8489 75.493 23.1885 75.493 23.596C75.493 24.0035 75.6967 24.411 76.0363 24.6827C76.308 24.9543 76.8513 25.226 77.6663 25.4977C78.6171 25.9052 79.3642 26.3127 79.7717 26.856C80.3151 27.3314 80.5867 28.0106 80.5867 28.7577Z" fill="white"/>
<path d="M86.4955 25.226H84.5259V29.0972C84.5259 30.0481 84.8655 30.5914 85.5447 30.5914C85.8843 30.5914 86.1559 30.5914 86.3597 30.5235L86.4276 31.8818C86.088 32.0176 85.6126 32.0856 85.0013 32.0856C84.3222 32.0856 83.7109 31.8818 83.3034 31.4743C82.8959 31.0668 82.6922 30.3197 82.6922 29.3689V25.3618H81.5376V24.0714H82.6922V22.6451L84.458 22.1018V24.0714H86.4276V25.226H86.4955Z" fill="white"/>
<path d="M95.4605 27.8069C95.4605 29.0294 95.1209 30.0481 94.3738 30.7952C93.6267 31.6102 92.608 32.0177 91.3855 32.0177C90.163 32.0177 89.28 31.6102 88.533 30.8631C87.8538 30.1161 87.4463 29.0973 87.4463 27.9427C87.4463 26.7202 87.7859 25.7015 88.533 24.9544C89.28 24.2073 90.2309 23.7998 91.4534 23.7998C92.6759 23.7998 93.6267 24.2073 94.3059 24.9544C95.1209 25.6336 95.4605 26.6523 95.4605 27.8069ZM93.6267 27.8748C93.6267 27.1277 93.4909 26.5165 93.1513 25.9731C92.7438 25.3619 92.2005 25.0223 91.5213 25.0223C90.7742 25.0223 90.2309 25.3619 89.8913 25.9731C89.5517 26.5165 89.4159 27.1277 89.4159 27.8748C89.4159 28.6219 89.5517 29.2331 89.8913 29.7765C90.2988 30.3877 90.8421 30.7273 91.5213 30.7273C92.2005 30.7273 92.7438 30.3877 93.1513 29.7765C93.423 29.2331 93.6267 28.6219 93.6267 27.8748Z" fill="white"/>
<path d="M101.301 25.4978C101.098 25.4978 100.962 25.4299 100.758 25.4299C100.147 25.4299 99.6034 25.6336 99.2638 26.109C98.9921 26.5165 98.7884 27.0598 98.7884 27.6711V31.814H96.9546V26.3807C96.9546 25.4978 96.9546 24.6148 96.8867 23.8678H98.4488L98.5167 25.3619H98.5846C98.7884 24.8186 99.0601 24.4111 99.4676 24.1394C99.8751 23.8678 100.283 23.7319 100.758 23.7319C100.894 23.7319 101.098 23.7319 101.233 23.7319V25.4978H101.301Z" fill="white"/>
<path d="M109.383 27.5351C109.383 27.8747 109.383 28.1463 109.315 28.3501H103.882C103.882 29.0972 104.154 29.7084 104.697 30.1159C105.173 30.4555 105.716 30.6592 106.463 30.6592C107.278 30.6592 108.025 30.5234 108.636 30.2517L108.908 31.4742C108.161 31.8138 107.21 31.9497 106.191 31.9497C104.901 31.9497 103.95 31.6101 103.203 30.863C102.456 30.1159 102.116 29.1651 102.116 27.9426C102.116 26.7201 102.456 25.7692 103.135 24.9542C103.814 24.1392 104.765 23.6638 105.988 23.6638C107.142 23.6638 108.025 24.0713 108.636 24.9542C109.112 25.7013 109.383 26.5163 109.383 27.5351ZM107.685 27.0597C107.685 26.5163 107.55 26.1088 107.346 25.7013C107.006 25.2259 106.531 24.9542 105.92 24.9542C105.308 24.9542 104.833 25.2259 104.493 25.7013C104.222 26.1088 104.018 26.5163 103.95 27.0597H107.685Z" fill="white"/>
<path d="M47.5792 14.1556C47.5792 15.1064 47.3076 15.8535 46.6963 16.3289C46.153 16.8043 45.338 17.0081 44.3192 17.0081C43.8438 17.0081 43.3684 17.0081 43.0288 16.9402V11.6427C43.5042 11.5748 43.9796 11.5068 44.523 11.5068C45.4738 11.5068 46.2209 11.7106 46.6963 12.1181C47.3076 12.5935 47.5792 13.2727 47.5792 14.1556ZM46.6963 14.1556C46.6963 13.5443 46.4926 13.0689 46.153 12.7293C45.8134 12.3898 45.338 12.2539 44.6588 12.2539C44.3871 12.2539 44.1155 12.2539 43.9117 12.3218V16.3289C44.0476 16.3289 44.2513 16.3289 44.523 16.3289C45.2021 16.3289 45.7455 16.1252 46.0851 15.7856C46.4926 15.3781 46.6963 14.8348 46.6963 14.1556Z" fill="white"/>
<path d="M52.5372 14.9705C52.5372 15.5818 52.3334 16.0572 51.9939 16.4647C51.6543 16.8722 51.1109 17.0759 50.5676 17.0759C49.9564 17.0759 49.5489 16.8722 49.1414 16.5326C48.8018 16.1251 48.598 15.6497 48.598 15.1063C48.598 14.4951 48.8018 14.0197 49.1414 13.6122C49.4809 13.2047 49.9564 13.0688 50.5676 13.0688C51.1789 13.0688 51.6543 13.2726 51.9939 13.6122C52.4014 13.8838 52.5372 14.3593 52.5372 14.9705ZM51.6543 14.9705C51.6543 14.6309 51.5864 14.2913 51.4505 14.0197C51.2468 13.6801 50.9751 13.5443 50.6355 13.5443C50.2959 13.5443 50.0243 13.6801 49.8205 14.0197C49.6847 14.2913 49.6168 14.563 49.6168 14.9705C49.6168 15.3101 49.6847 15.6497 49.8205 15.9213C50.0243 16.2609 50.2959 16.3968 50.6355 16.3968C50.9751 16.3968 51.2468 16.2609 51.4505 15.9213C51.5864 15.6497 51.6543 15.378 51.6543 14.9705Z" fill="white"/>
<path d="M59.193 13.0688L57.9705 16.9401H57.1555L56.6121 15.2422C56.4763 14.8347 56.4084 14.4272 56.2725 14.0197C56.2046 14.4272 56.0688 14.8347 55.933 15.2422L55.3896 16.9401H54.5746L53.42 13.0688H54.303L54.7784 14.9026C54.9142 15.3101 54.9821 15.7855 55.05 16.1251C55.118 15.7855 55.2538 15.378 55.3896 14.9026L55.933 13.0688H56.68L57.2234 14.9026C57.3592 15.378 57.4271 15.7855 57.563 16.193C57.6309 15.7855 57.6988 15.378 57.8346 14.9026L58.31 13.0688H59.193Z" fill="white"/>
<path d="M63.8113 16.9401H62.9284V14.6989C62.9284 14.0197 62.6567 13.6801 62.1134 13.6801C61.8417 13.6801 61.638 13.7481 61.5021 13.9518C61.3663 14.1556 61.2305 14.3593 61.2305 14.631V16.9401H60.3475V14.1556C60.3475 13.816 60.3475 13.4764 60.3475 13.0689H61.0946L61.1625 13.6801C61.2984 13.4764 61.4342 13.3406 61.6379 13.2047C61.9096 13.0689 62.1134 13.001 62.453 13.001C62.7925 13.001 63.1321 13.1368 63.4038 13.3406C63.7434 13.6122 63.8792 14.0876 63.8792 14.631V16.9401H63.8113Z" fill="white"/>
<path d="M66.2563 16.9401H65.3734V11.303H66.2563V16.9401Z" fill="white"/>
<path d="M71.4179 14.9705C71.4179 15.5818 71.2142 16.0572 70.8746 16.4647C70.535 16.8722 69.9917 17.0759 69.4483 17.0759C68.8371 17.0759 68.4296 16.8722 68.0221 16.5326C67.6825 16.1251 67.4788 15.6497 67.4788 15.1063C67.4788 14.4951 67.6825 14.0197 68.0221 13.6122C68.3617 13.2047 68.8371 13.0688 69.4483 13.0688C70.0596 13.0688 70.535 13.2726 70.8746 13.6122C71.2821 13.8838 71.4179 14.3593 71.4179 14.9705ZM70.535 14.9705C70.535 14.6309 70.4671 14.2913 70.3313 14.0197C70.1275 13.6801 69.8558 13.5443 69.5163 13.5443C69.1767 13.5443 68.905 13.6801 68.7013 14.0197C68.5654 14.2913 68.4975 14.563 68.4975 14.9705C68.4975 15.3101 68.5654 15.6497 68.7013 15.9213C68.905 16.2609 69.1767 16.3968 69.5163 16.3968C69.8558 16.3968 70.1275 16.2609 70.3313 15.9213C70.4671 15.6497 70.535 15.378 70.535 14.9705Z" fill="white"/>
<path d="M75.6968 16.9401H74.8818L74.8139 16.4647C74.5422 16.8043 74.1347 17.0081 73.6593 17.0081C73.2518 17.0081 72.9801 16.8722 72.7764 16.6685C72.5726 16.4647 72.4368 16.1931 72.4368 15.8535C72.4368 15.3781 72.6405 15.0385 73.048 14.7668C73.4555 14.4951 73.9989 14.4272 74.7459 14.4272V14.3593C74.7459 13.816 74.4743 13.6122 73.9309 13.6122C73.5234 13.6122 73.1839 13.6801 72.9122 13.8839L72.7084 13.3406C73.048 13.1368 73.5234 13.001 74.0668 13.001C75.0855 13.001 75.6289 13.5443 75.6289 14.631V16.0572C75.6968 16.3968 75.6968 16.7364 75.6968 16.9401ZM74.8139 15.5818V15.0385C73.863 15.0385 73.3197 15.3101 73.3197 15.8535C73.3197 16.0572 73.3876 16.1931 73.5234 16.3289C73.6593 16.4647 73.7951 16.4647 73.9309 16.4647C74.1347 16.4647 74.3384 16.3968 74.4743 16.261C74.6101 16.1251 74.7459 15.9893 74.8139 15.7856C74.8139 15.7176 74.8139 15.6497 74.8139 15.5818Z" fill="white"/>
<path d="M80.7905 16.9401H79.9755L79.9076 16.3288C79.6359 16.8042 79.2284 17.008 78.6172 17.008C78.1418 17.008 77.7343 16.8721 77.4626 16.4646C77.123 16.1251 76.9872 15.6496 76.9872 15.0384C76.9872 14.4271 77.1909 13.8838 77.5305 13.5442C77.8701 13.2046 78.2776 13.0009 78.753 13.0009C79.2963 13.0009 79.6359 13.2046 79.9076 13.5442V11.303H80.7905V15.9213C80.7226 16.2609 80.7226 16.6005 80.7905 16.9401ZM79.8397 15.3101V14.6309C79.8397 14.4951 79.8397 14.4271 79.8397 14.3592C79.7718 14.1555 79.6359 14.0196 79.5001 13.8838C79.3643 13.748 79.1605 13.6801 78.8888 13.6801C78.5493 13.6801 78.2776 13.8159 78.1418 14.0876C77.938 14.3592 77.8701 14.6988 77.8701 15.0384C77.8701 15.4459 77.938 15.7176 78.1418 15.9892C78.3455 16.2609 78.6172 16.3967 78.8888 16.3967C79.1605 16.3967 79.4322 16.2609 79.568 16.0571C79.7718 15.7855 79.8397 15.5817 79.8397 15.3101Z" fill="white"/>
<path d="M88.3292 14.9705C88.3292 15.5818 88.1254 16.0572 87.7858 16.4647C87.4463 16.8722 86.9029 17.0759 86.3596 17.0759C85.7483 17.0759 85.3409 16.8722 84.9334 16.5326C84.5938 16.1251 84.39 15.6497 84.39 15.1063C84.39 14.4951 84.5938 14.0197 84.9334 13.6122C85.2729 13.2047 85.7483 13.0688 86.3596 13.0688C86.9708 13.0688 87.4463 13.2726 87.7858 13.6122C88.1933 13.8838 88.3292 14.3593 88.3292 14.9705ZM87.4463 14.9705C87.4463 14.6309 87.3784 14.2913 87.2425 14.0197C87.0388 13.6801 86.7671 13.5443 86.4275 13.5443C86.0879 13.5443 85.8163 13.6801 85.6125 14.0197C85.4767 14.2913 85.4088 14.563 85.4088 14.9705C85.4088 15.3101 85.4767 15.6497 85.6125 15.9213C85.8163 16.2609 86.0879 16.3968 86.4275 16.3968C86.7671 16.3968 87.0388 16.2609 87.2425 15.9213C87.3104 15.6497 87.4463 15.378 87.4463 14.9705Z" fill="white"/>
<path d="M93.0834 16.9401H92.2005V14.6989C92.2005 14.0197 91.9288 13.6801 91.3855 13.6801C91.1138 13.6801 90.91 13.7481 90.7742 13.9518C90.6384 14.1556 90.5025 14.3593 90.5025 14.631V16.9401H89.6196V14.1556C89.6196 13.816 89.6196 13.4764 89.6196 13.0689H90.3667L90.4346 13.6801C90.5705 13.4764 90.7063 13.3406 90.91 13.2047C91.1817 13.0689 91.3855 13.001 91.725 13.001C92.0646 13.001 92.4042 13.1368 92.6759 13.3406C93.0155 13.6122 93.1513 14.0876 93.1513 14.631V16.9401H93.0834Z" fill="white"/>
<path d="M99.0601 13.6803H98.1092V15.582C98.1092 16.0574 98.313 16.329 98.6526 16.329C98.7884 16.329 98.9242 16.329 99.0601 16.2611V16.9403C98.8563 17.0082 98.6526 17.0082 98.3809 17.0082C98.0413 17.0082 97.7696 16.8724 97.5659 16.6686C97.3621 16.4649 97.2942 16.1253 97.2942 15.6499V13.6803H96.683V13.0011H97.2942V12.322L98.1771 12.0503V13.0011H99.128L99.0601 13.6803Z" fill="white"/>
<path d="M103.746 16.9401H102.863V14.7667C102.863 14.0876 102.592 13.748 102.048 13.748C101.641 13.748 101.369 13.9517 101.233 14.3592C101.233 14.4271 101.166 14.563 101.166 14.6988V17.008H100.283V11.303H101.166V13.6121C101.437 13.2046 101.845 13.0009 102.388 13.0009C102.728 13.0009 103.067 13.1367 103.271 13.3405C103.543 13.6121 103.746 14.0876 103.746 14.6309V16.9401Z" fill="white"/>
<path d="M108.568 14.8347C108.568 14.9706 108.568 15.1064 108.568 15.2422H105.92C105.92 15.6497 106.055 15.9214 106.327 16.1251C106.531 16.3289 106.87 16.3968 107.21 16.3968C107.618 16.3968 107.957 16.3289 108.297 16.1931L108.433 16.8043C108.025 16.9401 107.618 17.076 107.074 17.076C106.463 17.076 105.988 16.8722 105.648 16.5326C105.308 16.1931 105.105 15.7176 105.105 15.1064C105.105 14.4951 105.24 14.0197 105.58 13.6122C105.92 13.2047 106.395 13.001 107.006 13.001C107.55 13.001 108.025 13.2047 108.297 13.6122C108.433 13.9518 108.568 14.3593 108.568 14.8347ZM107.753 14.5631C107.753 14.2914 107.685 14.0876 107.55 13.8839C107.414 13.6122 107.142 13.5443 106.87 13.5443C106.599 13.5443 106.327 13.6801 106.191 13.8839C106.055 14.0876 105.988 14.2914 105.92 14.5631H107.753Z" fill="white"/>
</g>
</g>
</g>
<defs>
<clipPath id="clip0_20005129_189">
<rect width="92.4" height="24.45" fill="white" transform="translate(17 10.7598)"/>
</clipPath>
<clipPath id="clip1_20005129_189">
<rect width="92.4" height="24.45" fill="white" transform="translate(17 10.7598)"/>
</clipPath>
<clipPath id="clip2_20005129_189">
<rect width="92.3667" height="24.45" fill="white" transform="translate(17.0167 10.7598)"/>
</clipPath>
</defs>
</svg>
