<svg width="139" height="45" viewBox="0 0 139 45" fill="none" xmlns="http://www.w3.org/2000/svg">
<rect x="0.699951" y="0.609863" width="137" height="42.95" rx="7.5" fill="#131022"/>
<rect x="0.699951" y="0.609863" width="137" height="42.95" rx="7.5" stroke="#131022"/>
<g clip-path="url(#clip0_20005129_216)">
<g clip-path="url(#clip1_20005129_216)">
<g clip-path="url(#clip2_20005129_216)">
<path d="M51.1638 13.7699C51.1638 14.5374 50.9336 15.0747 50.4731 15.5352C49.9358 16.0724 49.3218 16.3027 48.4776 16.3027C47.7101 16.3027 47.0193 16.0724 46.4821 15.5352C45.9448 14.9979 45.6378 14.3839 45.6378 13.6164C45.6378 12.8489 45.9448 12.1582 46.4821 11.6977C47.0193 11.1604 47.7101 10.9302 48.4776 10.9302C48.8613 10.9302 49.2451 11.0069 49.5521 11.1604C49.9358 11.3139 50.1661 11.4674 50.3963 11.7744L50.0126 12.0814C49.6288 11.6209 49.1683 11.4674 48.5543 11.4674C48.0171 11.4674 47.4798 11.6977 47.0961 12.0814C46.7123 12.4652 46.4821 13.0024 46.4821 13.6164C46.4821 14.2304 46.7123 14.7677 47.0961 15.1514C47.4798 15.5352 48.0171 15.7654 48.5543 15.7654C49.1683 15.7654 49.6288 15.5352 50.0893 15.1514C50.3196 14.9212 50.4731 14.5374 50.5498 14.0769H48.6311V13.3094H51.2406C51.1638 13.4629 51.1638 13.6164 51.1638 13.7699Z" fill="white"/>
<path d="M55.3083 11.5442H52.8523V13.2327H55.078V13.8467H52.8523V15.5352H55.3083V16.1492H52.1615V10.9302H55.3083V11.5442Z" fill="white"/>
<path d="M58.2248 16.1492H57.534V11.5442H55.999V10.9302H59.683V11.5442H58.148V16.1492H58.2248Z" fill="white"/>
<path d="M62.3693 16.1492V10.9302H63.06V16.1492H62.3693Z" fill="white"/>
<path d="M66.13 16.1492H65.4393V11.5442H63.9043V10.9302H67.665V11.5442H66.13V16.1492Z" fill="white"/>
<path d="M74.6492 15.4585C74.112 15.9958 73.498 16.226 72.6537 16.226C71.8862 16.226 71.1955 15.9958 70.6582 15.4585C70.121 14.9213 69.8907 14.3073 69.8907 13.5398C69.8907 12.7723 70.121 12.1583 70.6582 11.621C71.1955 11.0838 71.8095 10.8535 72.6537 10.8535C73.4212 10.8535 74.112 11.0838 74.6492 11.621C75.1865 12.1583 75.4167 12.7723 75.4167 13.5398C75.4167 14.3073 75.1865 14.9213 74.6492 15.4585ZM71.1955 14.998C71.5792 15.3818 72.1165 15.612 72.6537 15.612C73.191 15.612 73.7282 15.3818 74.112 14.998C74.4957 14.6143 74.726 14.077 74.726 13.463C74.726 12.849 74.4957 12.3118 74.112 11.928C73.7282 11.5443 73.191 11.314 72.6537 11.314C72.0397 11.314 71.5792 11.5443 71.1955 11.928C70.8117 12.3118 70.5815 12.849 70.5815 13.463C70.5815 14.1538 70.8117 14.6143 71.1955 14.998Z" fill="white"/>
<path d="M76.4146 16.1492V10.9302H77.2588L79.8683 14.9979V14.0002V10.9302H80.5591V16.1492H79.8683L77.1053 11.8512V12.8489V16.1492H76.4146Z" fill="white"/>
<path d="M69.7373 23.8242C67.665 23.8242 65.8998 25.3592 65.8998 27.5082C65.8998 29.6572 67.5883 31.1922 69.7373 31.1922C71.8095 31.1922 73.5748 29.5804 73.5748 27.5082C73.5748 25.3592 71.8095 23.8242 69.7373 23.8242ZM69.7373 29.8107C68.586 29.8107 67.5883 28.8897 67.5883 27.5849C67.5883 26.2802 68.586 25.3592 69.7373 25.3592C70.8885 25.3592 71.8863 26.2802 71.8863 27.5849C71.8863 28.8129 70.8885 29.8107 69.7373 29.8107ZM61.3715 23.8242C59.2993 23.8242 57.534 25.3592 57.534 27.5082C57.534 29.6572 59.2225 31.1922 61.3715 31.1922C63.4438 31.1922 65.209 29.5804 65.209 27.5082C65.209 25.3592 63.5205 23.8242 61.3715 23.8242ZM61.3715 29.8107C60.2203 29.8107 59.2225 28.8897 59.2225 27.5849C59.2225 26.2802 60.2203 25.3592 61.3715 25.3592C62.5228 25.3592 63.5205 26.2802 63.5205 27.5849C63.5205 28.8129 62.5228 29.8107 61.3715 29.8107ZM51.4708 24.9754V26.5872H55.3083C55.2315 27.5082 54.9245 28.1222 54.464 28.5827C53.9268 29.1199 53.0058 29.7339 51.4708 29.7339C49.0915 29.7339 47.2495 27.8919 47.2495 25.5127C47.2495 23.1334 49.0915 21.2914 51.4708 21.2914C52.7755 21.2914 53.6965 21.7519 54.3873 22.4427L55.5385 21.2914C54.5408 20.3704 53.3128 19.6797 51.4708 19.6797C48.1705 19.6797 45.4843 22.2892 45.4843 25.4359C45.4843 28.5827 48.2473 31.1922 51.4708 31.1922C53.236 31.1922 54.5408 30.6549 55.6153 29.5804C56.6898 28.5059 56.9968 27.0477 56.9968 25.8964C56.9968 25.5127 56.9968 25.2057 56.92 24.8987H51.4708V24.9754ZM92.0715 26.2034C91.7645 25.3592 90.7668 23.8242 88.7713 23.8242C86.7758 23.8242 85.164 25.3592 85.164 27.5082C85.164 29.5804 86.7757 31.1922 88.9248 31.1922C90.69 31.1922 91.6878 30.1177 92.0715 29.5804L90.7668 28.7362C90.3063 29.3502 89.769 29.7339 88.9248 29.7339C88.0805 29.7339 87.4665 29.3502 87.0828 28.5827L92.1483 26.5104L92.0715 26.2034ZM86.8525 27.4314C86.7758 25.9732 88.0038 25.2824 88.848 25.2824C89.5388 25.2824 90.076 25.5894 90.2295 26.0499L86.8525 27.4314ZM82.708 31.0387H84.3965V20.0634H82.708V31.0387ZM79.945 24.6684C79.4845 24.2079 78.7938 23.8242 77.8728 23.8242C75.954 23.8242 74.1888 25.4359 74.1888 27.5849C74.1888 29.6572 75.954 31.2689 77.8728 31.2689C78.7938 31.2689 79.4845 30.8852 79.8683 30.4247H79.945V30.9619C79.945 32.4202 79.1775 33.1109 77.9495 33.1109C76.9518 33.1109 76.261 32.4202 76.0308 31.8062L74.5725 32.3434C74.9563 33.3412 76.1075 34.5692 77.9495 34.5692C79.945 34.5692 81.5568 33.4179 81.5568 30.7317V24.0544H79.945V24.6684ZM78.0263 29.8107C76.875 29.8107 75.8773 28.8897 75.8773 27.5849C75.8773 26.2802 76.875 25.2824 78.0263 25.2824C79.1775 25.2824 80.0985 26.2034 80.0985 27.5849C80.0985 28.8129 79.1775 29.8107 78.0263 29.8107ZM99.9 20.0634H95.909V30.9619H97.5975V26.8174H99.9C101.742 26.8174 103.584 25.5127 103.584 23.4404C103.584 21.3682 101.742 20.0634 99.9 20.0634ZM99.9 25.3592H97.5208V21.5984H99.9C101.128 21.5984 101.896 22.5962 101.896 23.4404C101.896 24.3614 101.205 25.3592 99.9 25.3592ZM110.261 23.7474C109.033 23.7474 107.805 24.2847 107.268 25.4359L108.726 26.0499C109.033 25.4359 109.647 25.2824 110.261 25.2824C111.105 25.2824 112.027 25.8197 112.027 26.6639V26.8174C111.72 26.6639 111.105 26.3569 110.261 26.3569C108.65 26.3569 107.038 27.2012 107.038 28.8129C107.038 30.2712 108.343 31.1922 109.801 31.1922C110.952 31.1922 111.566 30.7317 111.95 30.1177H112.027V30.9619H113.638V26.8174C113.638 24.8987 112.18 23.7474 110.261 23.7474ZM110.031 29.8107C109.494 29.8107 108.726 29.5804 108.726 28.8897C108.726 28.0454 109.647 27.7384 110.492 27.7384C111.259 27.7384 111.566 27.8919 112.027 28.1222C111.873 29.0432 111.029 29.8107 110.031 29.8107ZM119.548 24.0544L117.629 28.8129H117.553L115.557 24.0544H113.792L116.785 30.6549L115.097 34.3389H116.862L121.467 24.0544H119.548ZM104.505 31.0387H106.194V20.0634H104.505V31.0387Z" fill="white"/>
<path d="M17.3938 11.3906C17.1635 11.6209 17.01 12.0814 17.01 12.6186V31.9596C17.01 32.4969 17.1635 32.9574 17.3938 33.1876L17.4705 33.2644L28.5993 22.4426V22.2124L17.3938 11.3906Z" fill="url(#paint0_linear_20005129_216)"/>
<path d="M32.2832 25.9733L28.5992 22.3661V22.1358L32.2832 18.5286L32.36 18.6053L36.7347 21.0613C37.9627 21.7521 37.9627 22.9033 36.7347 23.5941L32.36 25.9733H32.2832Z" fill="url(#paint1_linear_20005129_216)"/>
<path d="M32.36 25.9733L28.5993 22.2893L17.3938 33.1878C17.8543 33.5716 18.545 33.6483 19.3125 33.1878L32.36 25.9733Z" fill="url(#paint2_linear_20005129_216)"/>
<path d="M32.36 18.6053L19.3125 11.314C18.545 10.9303 17.8543 10.9303 17.3938 11.3908L28.5225 22.2893L32.36 18.6053Z" fill="url(#paint3_linear_20005129_216)"/>
</g>
</g>
</g>
<defs>
<linearGradient id="paint0_linear_20005129_216" x1="27.4935" y1="32.2518" x2="12.8219" y2="17.2247" gradientUnits="userSpaceOnUse">
<stop stop-color="#00A0FF"/>
<stop offset="0.0066" stop-color="#00A1FF"/>
<stop offset="0.2601" stop-color="#00BEFF"/>
<stop offset="0.5122" stop-color="#00D2FF"/>
<stop offset="0.7604" stop-color="#00DFFF"/>
<stop offset="1" stop-color="#00E3FF"/>
</linearGradient>
<linearGradient id="paint1_linear_20005129_216" x1="38.3828" y1="22.2705" x2="16.7104" y2="22.2705" gradientUnits="userSpaceOnUse">
<stop stop-color="#FFE000"/>
<stop offset="0.4087" stop-color="#FFBD00"/>
<stop offset="0.7754" stop-color="#FFA500"/>
<stop offset="1" stop-color="#FF9C00"/>
</linearGradient>
<linearGradient id="paint2_linear_20005129_216" x1="22.8905" y1="27.5119" x2="2.99458" y2="7.13394" gradientUnits="userSpaceOnUse">
<stop stop-color="#FF3A44"/>
<stop offset="1" stop-color="#C31162"/>
</linearGradient>
<linearGradient id="paint3_linear_20005129_216" x1="7.56742" y1="32.7264" x2="16.4518" y2="23.6267" gradientUnits="userSpaceOnUse">
<stop stop-color="#32A071"/>
<stop offset="0.0685" stop-color="#2DA771"/>
<stop offset="0.4762" stop-color="#15CF74"/>
<stop offset="0.8009" stop-color="#06E775"/>
<stop offset="1" stop-color="#00F076"/>
</linearGradient>
<clipPath id="clip0_20005129_216">
<rect width="104.4" height="24.56" fill="white" transform="translate(17 10.7)"/>
</clipPath>
<clipPath id="clip1_20005129_216">
<rect width="104.4" height="24.56" fill="white" transform="translate(17 10.7)"/>
</clipPath>
<clipPath id="clip2_20005129_216">
<rect width="104.38" height="24.56" fill="white" transform="translate(17.01 10.7)"/>
</clipPath>
</defs>
</svg>
