<svg width="26" height="26" viewBox="0 0 26 26" fill="none" xmlns="http://www.w3.org/2000/svg">
<path d="M21.2871 16.5226C20.3724 15.6194 19.2304 15.6194 18.3214 16.5226C17.6281 17.2101 16.9347 17.8976 16.253 18.5968C16.0666 18.7891 15.9092 18.8299 15.682 18.7017C15.2334 18.457 14.7556 18.2589 14.3244 17.9908C12.3143 16.7265 10.6304 15.1009 9.13881 13.2714C8.39884 12.3624 7.74045 11.3894 7.28015 10.294C7.18693 10.0726 7.20441 9.92693 7.38503 9.7463C8.07839 9.07625 8.75426 8.38872 9.43597 7.70119C10.3857 6.74564 10.3857 5.62695 9.43014 4.66557C8.88827 4.11788 8.34641 3.58183 7.80454 3.03414C7.24519 2.47479 6.69167 1.90962 6.1265 1.3561C5.21173 0.464641 4.06973 0.464641 3.16079 1.36193C2.46161 2.04946 1.79156 2.75447 1.08072 3.43034C0.422322 4.05378 0.09021 4.81706 0.0202916 5.70852C-0.0904125 7.15932 0.265006 8.52856 0.766088 9.86283C1.79156 12.6246 3.35307 15.0776 5.24669 17.3266C7.80454 20.3681 10.8576 22.7744 14.4293 24.5107C16.0374 25.2915 17.7038 25.8916 19.5159 25.9907C20.7627 26.0606 21.8465 25.746 22.7146 24.7729C23.3089 24.1087 23.979 23.5027 24.6083 22.8676C25.5405 21.9238 25.5463 20.7818 24.6199 19.8495C23.5129 18.7366 22.4 17.6296 21.2871 16.5226Z" fill="#6366F1"/>
</svg>
