<svg width="28" height="28" viewBox="0 0 28 28" fill="none" xmlns="http://www.w3.org/2000/svg">
<g clip-path="url(#clip0_4634_10140)">
<path d="M22.1484 14.055C20.3391 14.055 18.8672 15.527 18.8672 17.3363C18.8672 19.1456 20.3391 20.6175 22.1484 20.6175H26.7968C26.8154 20.6175 26.8335 20.6157 26.8518 20.6147C26.8699 20.6156 26.8878 20.6175 26.9062 20.6175C27.5103 20.6175 27.9999 20.1278 27.9999 19.5237V10.9378C27.9999 9.48169 27.2843 8.19024 26.1868 7.3946L22.4659 1.29039C22.3142 1.04145 22.0693 0.863391 21.7857 0.795797C21.5021 0.728094 21.2033 0.776492 20.9555 0.930164L18.2115 2.63182L16.974 0.537618C16.8252 0.285837 16.5818 0.104166 16.2982 0.0330719C16.0145 -0.0380217 15.7141 0.00753291 15.4643 0.159345L4.92783 6.5628H3.28124C2.68728 6.5628 2.20237 6.08691 2.18782 5.4964C2.20237 4.90588 2.68728 4.42999 3.28124 4.42999H5.30468C5.90875 4.42999 6.39843 3.94032 6.39843 3.33625C6.39843 2.73217 5.90875 2.2425 5.30468 2.2425H3.28124C1.7337 2.2425 0.433069 3.31951 0.0891405 4.76331C0.0319374 4.89599 0 5.042 0 5.19562V5.46905V5.52374V23.6253C0 26.0376 1.96262 28.0003 4.37499 28.0003H23.625C25.5111 28.0003 27.1793 26.7987 27.7758 25.0104C27.967 24.4374 27.6574 23.8179 27.0844 23.6268C26.5114 23.4357 25.8919 23.7452 25.7007 24.3182C25.4025 25.2121 24.5684 25.8128 23.625 25.8128H4.37499C3.16881 25.8128 2.1875 24.8315 2.1875 23.6253V8.56267C2.52978 8.68407 2.89789 8.7503 3.28124 8.7503H23.625C24.8311 8.7503 25.8125 9.73161 25.8125 10.9378V14.055H22.1484ZM25.8125 18.43H22.1484C21.5453 18.43 21.0546 17.9394 21.0546 17.3362C21.0546 16.7331 21.5453 16.2425 22.1484 16.2425H25.8125V18.43ZM9.1398 6.56286L15.6541 2.60387L16.8188 4.57486C16.8411 4.62873 16.8668 4.68183 16.8986 4.73302C16.9224 4.77135 16.9487 4.80706 16.9762 4.84141L17.9934 6.56286H9.1398ZM20.5343 6.5628L19.3246 4.51552L21.1717 3.3701L23.1179 6.5628H20.5343Z" fill="url(#paint0_linear_4634_10140)"/>
</g>
<defs>
<linearGradient id="paint0_linear_4634_10140" x1="0" y1="14.0673" x2="27.9999" y2="14.0673" gradientUnits="userSpaceOnUse">
<stop stop-color="#6366F1"/>
<stop offset="0.5" stop-color="#8B5CF6"/>
<stop offset="1" stop-color="#D946EF"/>
</linearGradient>
<clipPath id="clip0_4634_10140">
<rect width="28" height="28" fill="white"/>
</clipPath>
</defs>
</svg>
